<svg width="50" height="47" viewBox="0 0 50 47" fill="none" xmlns="http://www.w3.org/2000/svg">
<path id="Vector" d="M25.0466 0C11.2663 0 0 11.3865 0 25.3137C0 33.8771 4.28305 41.7818 11.4525 46.487C12.9423 47.428 14.8976 47.0516 15.8287 45.5459C16.7598 44.0403 16.3873 42.0641 14.8976 41.1231C12.7561 39.7115 10.987 37.9236 9.59032 35.8533C8.00745 33.6889 6.42458 30.5835 6.23836 26.9135C6.23836 26.9135 4.7486 16.5622 12.9423 9.97493C13.7803 9.31621 14.8976 8.9398 16.0149 9.0339C16.946 9.12801 17.9702 9.59852 18.4358 10.8219C18.9944 12.1393 18.5289 13.645 17.5047 14.6801C16.108 16.0916 13.8734 18.7265 13.1285 22.0201C13.1285 22.0201 11.7318 29.3602 17.1322 33.8771C17.1322 33.8771 19.6462 36.512 25.0466 36.8884C30.4469 36.512 32.9609 33.8771 32.9609 33.8771C38.3613 29.3602 36.9646 22.0201 36.9646 22.0201C36.2197 18.7265 33.9851 16.0916 32.5885 14.6801C31.5642 13.645 31.1918 12.1393 31.6574 10.8219C32.1229 9.59852 33.1471 9.12801 34.0782 9.0339C35.1955 8.9398 36.2197 9.31621 37.1508 9.97493C45.3445 16.5622 43.8547 26.9135 43.8547 26.9135C43.6685 30.5835 42.0857 33.6889 40.5028 35.8533C39.1061 37.9236 37.3371 39.7115 35.1955 41.1231C33.7058 42.0641 33.3333 44.0403 34.2644 45.5459C34.8231 46.487 35.8473 46.9575 36.8715 46.9575C37.4302 46.9575 38.0819 46.7693 38.5475 46.487C45.7169 41.7818 50 33.8771 50 25.2196C50 11.3865 38.8268 0 25.0466 0ZM25.0466 14.4919C23.0912 14.4919 21.5084 12.8921 21.5084 10.916C21.5084 8.9398 23.0912 7.34005 25.0466 7.34005C27.0019 7.34005 28.5847 8.9398 28.5847 10.916C28.5847 12.8921 27.0019 14.4919 25.0466 14.4919Z" fill="white"/>
</svg>
