<svg width="452" height="180" viewBox="0 0 452 180" fill="none" xmlns="http://www.w3.org/2000/svg">
<g filter="url(#filter0_d_19886_143263)">
<rect width="452" height="180" fill="#3BBEF6"/>
<g opacity="0.6">
<path opacity="0.15" d="M161.756 164.868C162.197 164.558 162.507 164.071 162.507 163.496C162.507 162.92 162.197 162.433 161.765 162.123L177.57 134.678C177.79 134.784 178.029 134.846 178.285 134.846C179.169 134.846 179.867 134.164 179.955 133.305H211.582C211.671 134.164 212.369 134.846 213.252 134.846C213.491 134.846 213.72 134.793 213.924 134.704L229.737 162.158C229.331 162.468 229.057 162.938 229.057 163.487C229.057 164.036 229.331 164.505 229.737 164.815L213.915 192.287C213.703 192.19 213.473 192.136 213.226 192.136C212.342 192.136 211.644 192.818 211.556 193.677H179.928C179.84 192.818 179.142 192.136 178.259 192.136C178.002 192.136 177.773 192.198 177.552 192.296L161.756 164.868ZM214.939 193.846C214.939 193.279 214.639 192.792 214.215 192.482L230.038 165.01C230.259 165.116 230.506 165.196 230.771 165.196C231.654 165.196 232.352 164.514 232.441 163.655H264.068C264.156 164.514 264.854 165.196 265.738 165.196C265.976 165.196 266.197 165.152 266.4 165.063L282.197 192.491C281.772 192.801 281.472 193.279 281.472 193.855C281.472 194.421 281.772 194.908 282.197 195.218L266.392 222.664C266.18 222.566 265.941 222.504 265.694 222.504C264.81 222.504 264.112 223.186 264.024 224.045H232.396C232.308 223.186 231.601 222.504 230.727 222.504C230.479 222.504 230.241 222.566 230.029 222.664L214.224 195.218C214.639 194.9 214.939 194.413 214.939 193.846ZM266.683 164.868C267.125 164.558 267.434 164.071 267.434 163.487C267.434 162.902 267.125 162.415 266.683 162.105L282.47 134.678C282.682 134.775 282.921 134.837 283.168 134.837C284.052 134.837 284.75 134.155 284.838 133.296H316.466C316.554 134.155 317.252 134.837 318.135 134.837C318.383 134.837 318.612 134.775 318.824 134.686L334.629 162.123C334.196 162.433 333.905 162.92 333.905 163.487C333.905 164.062 334.205 164.541 334.638 164.851L318.833 192.287C318.621 192.19 318.383 192.128 318.135 192.128C317.252 192.128 316.554 192.81 316.466 193.669H284.829C284.741 192.81 284.043 192.128 283.159 192.128C282.912 192.128 282.682 192.19 282.47 192.278L266.683 164.868ZM334.921 161.937L319.116 134.492C319.54 134.182 319.84 133.703 319.84 133.128C319.84 132.552 319.54 132.074 319.107 131.764L334.912 104.318C335.133 104.416 335.363 104.478 335.619 104.478C336.502 104.478 337.2 103.796 337.288 102.937H368.916C369.004 103.796 369.702 104.478 370.586 104.478C370.833 104.478 371.063 104.416 371.284 104.318L387.089 131.764C386.656 132.074 386.364 132.552 386.364 133.128C386.364 133.694 386.665 134.182 387.089 134.492L371.284 161.928C371.072 161.831 370.842 161.769 370.595 161.769C369.711 161.769 369.013 162.451 368.925 163.31H337.288C337.2 162.451 336.502 161.769 335.619 161.769C335.371 161.777 335.142 161.839 334.921 161.937ZM159.097 163.487C159.097 164.434 159.856 165.196 160.802 165.196C161.04 165.196 161.27 165.143 161.482 165.054L177.278 192.491C176.854 192.801 176.554 193.279 176.554 193.855C176.554 194.793 177.322 195.564 178.259 195.564C179.142 195.564 179.84 194.882 179.928 194.023H211.574C211.662 194.882 212.36 195.564 213.243 195.564C213.491 195.564 213.729 195.502 213.941 195.404L229.746 222.85C229.322 223.16 229.022 223.638 229.022 224.214C229.022 225.161 229.781 225.923 230.727 225.923C231.61 225.923 232.308 225.241 232.396 224.382H264.024C264.112 225.241 264.81 225.923 265.694 225.923C266.63 225.923 267.399 225.152 267.399 224.214C267.399 223.647 267.098 223.16 266.674 222.85L282.479 195.404C282.691 195.502 282.93 195.564 283.177 195.564C284.061 195.564 284.759 194.882 284.847 194.023H316.483C316.572 194.882 317.27 195.564 318.153 195.564C319.089 195.564 319.858 194.793 319.858 193.855C319.858 193.279 319.558 192.801 319.134 192.491L334.939 165.045C335.151 165.143 335.389 165.196 335.636 165.196C336.52 165.196 337.218 164.514 337.306 163.655H368.943C369.031 164.514 369.729 165.196 370.612 165.196C370.86 165.196 371.098 165.134 371.31 165.037L387.115 192.482C386.691 192.792 386.391 193.27 386.391 193.846C386.391 194.785 387.159 195.555 388.096 195.555C388.979 195.555 389.677 194.873 389.765 194.014H421.393C421.481 194.873 422.179 195.555 423.063 195.555C423.999 195.555 424.768 194.793 424.768 193.846C424.768 193.279 424.467 192.792 424.043 192.482L439.848 165.037C440.06 165.134 440.299 165.196 440.546 165.196C441.43 165.196 442.128 164.514 442.216 163.655H473.835C473.923 164.514 474.621 165.196 475.504 165.196C475.76 165.196 475.99 165.134 476.202 165.037L491.998 192.473C491.565 192.783 491.256 193.27 491.256 193.846C491.256 194.413 491.557 194.9 491.981 195.21L476.176 222.655C475.964 222.558 475.725 222.496 475.478 222.496C474.594 222.496 473.896 223.177 473.808 224.036H442.189C442.101 223.177 441.394 222.496 440.52 222.496C439.583 222.496 438.815 223.266 438.815 224.205C438.815 224.78 439.115 225.259 439.539 225.569L423.734 253.014C423.522 252.917 423.284 252.855 423.036 252.855C422.1 252.855 421.331 253.616 421.331 254.564C421.331 255.511 422.091 256.273 423.036 256.273C423.284 256.273 423.522 256.211 423.734 256.114L439.539 283.559C439.106 283.869 438.815 284.347 438.815 284.923C438.815 285.862 439.574 286.632 440.52 286.632C441.403 286.632 442.101 285.95 442.189 285.091H473.799C473.888 285.95 474.585 286.632 475.469 286.632C475.725 286.632 475.955 286.57 476.167 286.473L491.972 313.918C491.539 314.228 491.239 314.706 491.239 315.282C491.239 316.221 491.998 316.991 492.944 316.991C493.827 316.991 494.525 316.309 494.613 315.45H526.241C526.329 316.309 527.027 316.991 527.911 316.991C528.856 316.991 529.616 316.221 529.616 315.282C529.616 314.715 529.315 314.237 528.891 313.927L544.696 286.482C544.908 286.579 545.147 286.641 545.394 286.641C546.277 286.641 546.975 285.959 547.064 285.1H578.691C578.78 285.959 579.478 286.641 580.361 286.641C580.608 286.641 580.847 286.579 581.059 286.482L596.864 313.927C596.431 314.237 596.139 314.715 596.139 315.291C596.139 316.229 596.899 317 597.844 317C598.728 317 599.426 316.318 599.514 315.459H631.142C631.23 316.318 631.928 317 632.811 317C633.748 317 634.517 316.229 634.517 315.291C634.517 314.724 634.216 314.237 633.792 313.927L649.597 286.482C649.809 286.579 650.048 286.641 650.295 286.641C651.231 286.641 652 285.879 652 284.932C652 283.984 651.231 283.222 650.295 283.222C650.048 283.222 649.809 283.284 649.597 283.382L633.801 255.963C634.251 255.653 634.569 255.157 634.569 254.573C634.569 253.634 633.81 252.863 632.864 252.863C631.981 252.863 631.283 253.545 631.195 254.413H599.567C599.479 253.554 598.781 252.863 597.897 252.863C597.632 252.863 597.385 252.943 597.155 253.049L581.35 225.613C581.801 225.303 582.119 224.807 582.119 224.222C582.119 223.284 581.35 222.513 580.414 222.513C579.531 222.513 578.833 223.195 578.744 224.054H547.064C546.975 223.195 546.277 222.513 545.394 222.513C545.147 222.513 544.917 222.575 544.696 222.664L528.891 195.227C529.324 194.917 529.616 194.439 529.616 193.863C529.616 193.297 529.324 192.827 528.9 192.508L544.731 165.019C544.961 165.125 545.2 165.205 545.474 165.205C546.419 165.205 547.179 164.443 547.179 163.496C547.179 162.548 546.419 161.786 545.474 161.786C545.208 161.786 544.961 161.866 544.731 161.972L528.927 134.527C529.377 134.217 529.695 133.721 529.695 133.137C529.695 132.198 528.935 131.427 527.99 131.427C527.107 131.427 526.4 132.109 526.32 132.968H494.675C494.596 132.109 493.889 131.427 493.005 131.427C492.74 131.427 492.502 131.498 492.281 131.604L476.476 104.159C476.918 103.849 477.236 103.362 477.236 102.777C477.236 102.193 476.927 101.706 476.485 101.396L492.29 73.9506C492.511 74.0569 492.749 74.1277 493.014 74.1277C493.898 74.1277 494.596 73.4458 494.684 72.5867V72.2502C494.596 71.3911 493.889 70.7092 493.014 70.7092C492.749 70.7092 492.511 70.7801 492.29 70.8863L476.476 43.4321C476.918 43.1222 477.218 42.6351 477.218 42.0594C477.218 41.4838 476.909 40.9967 476.467 40.6867L476.193 40.5007C475.981 40.4122 475.752 40.359 475.513 40.359C474.63 40.359 473.932 41.041 473.843 41.9H442.216C442.128 41.041 441.43 40.359 440.546 40.359C440.29 40.359 440.043 40.4299 439.822 40.5273L424.008 13.0731C424.441 12.7631 424.732 12.2849 424.732 11.7092C424.732 10.7705 423.973 10 423.027 10C422.144 10 421.446 10.6819 421.358 11.541H389.73C389.642 10.6819 388.944 10 388.06 10C387.124 10 386.355 10.7616 386.355 11.7092C386.355 12.276 386.656 12.7631 387.08 13.0731L371.275 40.5184C371.063 40.421 370.824 40.359 370.577 40.359C369.693 40.359 368.996 41.041 368.907 41.9H337.28C337.191 41.041 336.493 40.359 335.61 40.359C335.363 40.359 335.133 40.421 334.921 40.5096L334.647 40.6956C334.214 41.0055 333.914 41.4838 333.914 42.0594C333.914 42.6262 334.214 43.1133 334.638 43.4233L318.833 70.8686C318.621 70.7712 318.383 70.7092 318.135 70.7092C317.252 70.7092 316.554 71.3911 316.466 72.2502V72.5867C316.554 73.4458 317.252 74.1277 318.135 74.1277C318.383 74.1277 318.621 74.0657 318.833 73.9683L334.638 101.414C334.214 101.724 333.914 102.202 333.914 102.769C333.914 103.335 334.205 103.814 334.638 104.132L318.833 131.578C318.621 131.48 318.383 131.418 318.135 131.418C317.252 131.418 316.554 132.1 316.466 132.959H284.838C284.75 132.1 284.052 131.418 283.168 131.418C282.232 131.418 281.463 132.189 281.463 133.128C281.463 133.694 281.764 134.182 282.188 134.492L266.4 161.91C266.188 161.822 265.968 161.769 265.72 161.769C264.837 161.769 264.139 162.451 264.05 163.31H232.423C232.335 162.451 231.637 161.769 230.753 161.769C230.479 161.769 230.232 161.848 230.002 161.963L214.189 134.509C214.63 134.199 214.939 133.712 214.939 133.128C214.939 132.189 214.18 131.418 213.234 131.418C212.351 131.418 211.644 132.1 211.565 132.959H179.937C179.849 132.1 179.151 131.418 178.267 131.418C177.331 131.418 176.562 132.189 176.562 133.128C176.562 133.686 176.854 134.164 177.269 134.474L161.482 161.928C161.27 161.839 161.04 161.777 160.802 161.777C159.856 161.777 159.097 162.548 159.097 163.487ZM371.284 43.6181L379.182 57.3275L387.089 71.0546C386.656 71.3646 386.364 71.8517 386.364 72.4185C386.364 72.9853 386.665 73.4724 387.089 73.7823L371.284 101.228C371.072 101.13 370.842 101.068 370.586 101.068C369.702 101.068 369.004 101.75 368.916 102.609H337.288C337.2 101.75 336.502 101.068 335.619 101.068C335.371 101.068 335.133 101.13 334.912 101.228L319.107 73.7823C319.54 73.4724 319.84 72.9941 319.84 72.4185C319.84 71.8517 319.549 71.3646 319.116 71.0546L334.921 43.6181C335.133 43.7155 335.363 43.7775 335.619 43.7775C336.502 43.7775 337.2 43.0956 337.288 42.2365H368.916C369.004 43.0956 369.702 43.7775 370.586 43.7775C370.833 43.7775 371.072 43.7155 371.284 43.6181ZM438.859 102.777C438.859 103.335 439.141 103.814 439.557 104.124L423.752 131.569C423.549 131.48 423.319 131.427 423.08 131.427C422.197 131.427 421.499 132.109 421.411 132.968H389.739C389.651 132.109 388.953 131.427 388.069 131.427C387.813 131.427 387.583 131.489 387.371 131.587L371.566 104.141C371.999 103.831 372.3 103.353 372.3 102.777C372.3 102.202 371.999 101.724 371.566 101.414L387.371 73.9772C387.583 74.0746 387.822 74.1366 388.069 74.1366C388.953 74.1366 389.651 73.4546 389.739 72.5956H421.375C421.464 73.4546 422.162 74.1366 423.045 74.1366C423.292 74.1366 423.531 74.0746 423.743 73.9772L439.557 101.44C439.141 101.75 438.859 102.22 438.859 102.777ZM438.841 42.0683C438.841 42.6262 439.133 43.1045 439.548 43.4144L423.743 70.8686C423.531 70.7712 423.301 70.7092 423.054 70.7092C422.17 70.7092 421.472 71.3911 421.384 72.2502H389.748C389.659 71.3911 388.962 70.7092 388.078 70.7092C387.831 70.7092 387.592 70.7712 387.38 70.8686L379.482 57.1592L371.575 43.4321C372.008 43.1222 372.3 42.6351 372.3 42.0683C372.3 41.5015 371.999 41.0144 371.575 40.7044L387.38 13.2591C387.592 13.3565 387.831 13.4185 388.078 13.4185C388.962 13.4185 389.659 12.7366 389.748 11.8775H421.375C421.464 12.7366 422.162 13.4185 423.045 13.4185C423.292 13.4185 423.531 13.3565 423.743 13.2591L439.557 40.7133C439.124 41.0321 438.841 41.5103 438.841 42.0683ZM476.193 101.21C475.99 101.121 475.76 101.068 475.522 101.068C474.639 101.068 473.941 101.75 473.852 102.609H442.225C442.136 101.75 441.438 101.068 440.555 101.068C440.29 101.068 440.051 101.139 439.831 101.245L424.017 73.7823C424.45 73.4724 424.75 72.9853 424.75 72.4185C424.75 71.8428 424.45 71.3646 424.017 71.0546L439.822 43.6004C440.043 43.7067 440.281 43.7687 440.537 43.7687C441.421 43.7687 442.119 43.0867 442.207 42.2277H473.835C473.923 43.0867 474.621 43.7687 475.504 43.7687C475.743 43.7687 475.973 43.7155 476.185 43.627L491.998 71.0723C491.583 71.3823 491.3 71.8605 491.3 72.4185C491.3 72.9764 491.592 73.4458 491.998 73.7646L476.193 101.21ZM582.048 284.914C582.048 284.347 581.748 283.86 581.324 283.55L597.147 256.078C597.376 256.185 597.615 256.264 597.88 256.264C598.754 256.264 599.461 255.582 599.55 254.723H631.177C631.265 255.582 631.972 256.264 632.847 256.264C633.076 256.264 633.297 256.22 633.501 256.131L649.297 283.55C648.873 283.86 648.572 284.338 648.572 284.914C648.572 285.481 648.873 285.968 649.297 286.278L633.492 313.723C633.28 313.626 633.041 313.564 632.794 313.564C631.91 313.564 631.212 314.246 631.124 315.105H599.497C599.408 314.246 598.701 313.564 597.827 313.564C597.579 313.564 597.341 313.626 597.129 313.723L581.324 286.278C581.748 285.959 582.048 285.481 582.048 284.914ZM544.687 283.355L528.882 255.91C529.315 255.6 529.607 255.122 529.607 254.546C529.607 253.979 529.306 253.501 528.882 253.191L544.687 225.746C544.899 225.843 545.129 225.905 545.385 225.905C546.269 225.905 546.967 225.223 547.055 224.364H578.735C578.824 225.223 579.522 225.905 580.405 225.905C580.635 225.905 580.856 225.852 581.059 225.772L596.864 253.218C596.457 253.528 596.175 253.997 596.175 254.546C596.175 255.095 596.457 255.565 596.864 255.883L581.041 283.355C580.829 283.258 580.591 283.196 580.343 283.196C579.46 283.196 578.762 283.878 578.674 284.737H547.046C546.958 283.878 546.26 283.196 545.376 283.196C545.129 283.205 544.899 283.258 544.687 283.355ZM476.432 286.269C476.856 285.959 477.156 285.481 477.156 284.914C477.156 284.347 476.865 283.869 476.441 283.559L492.246 256.114C492.458 256.211 492.687 256.264 492.935 256.264C493.818 256.264 494.516 255.582 494.604 254.723H526.232C526.32 255.582 527.018 256.264 527.902 256.264C528.149 256.264 528.388 256.202 528.6 256.105L544.405 283.55C543.981 283.86 543.68 284.347 543.68 284.914C543.68 285.49 543.98 285.968 544.413 286.278L528.608 313.723C528.388 313.626 528.158 313.564 527.902 313.564C527.018 313.564 526.32 314.246 526.232 315.105H494.604C494.516 314.246 493.818 313.564 492.935 313.564C492.687 313.564 492.449 313.626 492.237 313.723L476.432 286.269ZM476.158 225.755L491.963 253.2C491.53 253.51 491.23 253.988 491.23 254.564C491.23 255.139 491.53 255.618 491.954 255.928L476.149 283.373C475.928 283.276 475.699 283.214 475.442 283.214C474.559 283.214 473.861 283.896 473.773 284.755H442.163C442.075 283.896 441.368 283.214 440.493 283.214C440.237 283.214 440.007 283.276 439.795 283.373L423.99 255.928C424.423 255.618 424.715 255.131 424.715 254.564C424.715 253.997 424.414 253.51 423.99 253.2L439.795 225.755C440.007 225.852 440.246 225.914 440.493 225.914C441.377 225.914 442.075 225.232 442.163 224.373H473.782C473.87 225.232 474.568 225.914 475.451 225.914C475.707 225.914 475.946 225.852 476.158 225.755ZM492.237 195.396C492.449 195.493 492.687 195.555 492.935 195.555C493.818 195.555 494.516 194.873 494.604 194.014H526.232C526.32 194.873 527.018 195.555 527.902 195.555C528.149 195.555 528.388 195.493 528.6 195.396L544.405 222.841C543.972 223.151 543.671 223.629 543.671 224.205C543.671 224.78 543.972 225.259 544.396 225.569L528.591 253.014C528.379 252.917 528.14 252.855 527.893 252.855C527.009 252.855 526.311 253.537 526.223 254.396H494.596C494.507 253.537 493.809 252.855 492.926 252.855C492.679 252.855 492.449 252.908 492.237 253.005L476.432 225.569C476.856 225.259 477.156 224.78 477.156 224.205C477.156 223.638 476.856 223.151 476.432 222.841L492.237 195.396ZM476.458 164.851C476.891 164.541 477.183 164.053 477.183 163.487C477.183 162.92 476.891 162.442 476.458 162.132L492.272 134.669C492.493 134.775 492.732 134.846 492.997 134.846C493.871 134.846 494.578 134.164 494.666 133.305H526.311C526.4 134.164 527.098 134.846 527.981 134.846C528.211 134.846 528.432 134.793 528.635 134.713L544.44 162.158C544.034 162.468 543.76 162.938 543.76 163.487C543.76 164.036 544.042 164.505 544.44 164.815L528.608 192.305C528.388 192.198 528.149 192.136 527.893 192.136C527.018 192.136 526.311 192.818 526.223 193.677H494.596C494.507 192.818 493.801 192.136 492.926 192.136C492.679 192.136 492.449 192.19 492.246 192.287L476.458 164.851ZM431.924 148.227L424.026 134.509C424.476 134.199 424.785 133.712 424.785 133.128C424.785 132.543 424.476 132.056 424.034 131.746L439.839 104.301C440.06 104.407 440.299 104.478 440.564 104.478C441.447 104.478 442.145 103.796 442.234 102.937H473.861C473.949 103.796 474.647 104.478 475.531 104.478C475.769 104.478 475.999 104.425 476.202 104.336L492.007 131.782C491.592 132.091 491.309 132.561 491.309 133.119C491.309 133.677 491.592 134.146 492.007 134.456L476.185 161.928C475.973 161.831 475.734 161.769 475.487 161.769C474.603 161.769 473.905 162.451 473.817 163.31H442.198C442.11 162.451 441.412 161.769 440.528 161.769C440.272 161.769 440.043 161.831 439.831 161.928L431.924 148.227ZM371.566 164.851C371.999 164.541 372.291 164.062 372.291 163.487C372.291 162.92 371.99 162.433 371.566 162.123L387.371 134.686C387.583 134.784 387.813 134.837 388.069 134.837C388.953 134.837 389.651 134.155 389.739 133.296H421.411C421.499 134.155 422.206 134.837 423.08 134.837C423.319 134.837 423.54 134.784 423.752 134.695L431.641 148.387L439.548 162.123C439.115 162.433 438.823 162.911 438.823 163.487C438.823 164.053 439.124 164.541 439.548 164.851L423.743 192.296C423.531 192.198 423.292 192.136 423.045 192.136C422.162 192.136 421.464 192.818 421.375 193.677H389.748C389.659 192.818 388.962 192.136 388.078 192.136C387.831 192.136 387.592 192.198 387.38 192.296L371.566 164.851Z" fill="white"/>
<path d="M161.661 164.877C162.103 164.568 162.412 164.081 162.412 163.506C162.412 162.931 162.103 162.444 161.661 162.134L177.472 134.692C177.693 134.802 177.936 134.869 178.189 134.869C179.073 134.869 179.768 134.194 179.857 133.331H211.501C211.589 134.194 212.296 134.869 213.168 134.869C213.411 134.869 213.632 134.813 213.841 134.725L229.663 162.178C229.266 162.488 228.99 162.953 228.99 163.506C228.99 164.059 229.266 164.523 229.674 164.833L213.841 192.298C213.632 192.198 213.4 192.143 213.157 192.143C212.273 192.143 211.578 192.829 211.49 193.68H179.846C179.757 192.818 179.062 192.143 178.178 192.143C177.924 192.143 177.693 192.209 177.472 192.309L161.661 164.877ZM214.868 193.846C214.868 193.271 214.57 192.796 214.139 192.486L229.972 165.021C230.193 165.132 230.436 165.198 230.701 165.198C231.584 165.198 232.28 164.523 232.368 163.661H264.012C264.101 164.523 264.796 165.198 265.679 165.198C265.911 165.198 266.143 165.154 266.342 165.065L282.142 192.486C281.711 192.796 281.413 193.271 281.413 193.846C281.413 194.422 281.711 194.897 282.142 195.207L266.331 222.649C266.121 222.55 265.878 222.495 265.635 222.495C264.752 222.495 264.056 223.169 263.968 224.032H232.324C232.236 223.169 231.529 222.495 230.657 222.495C230.403 222.495 230.171 222.561 229.961 222.649L214.15 195.207C214.57 194.897 214.868 194.422 214.868 193.846ZM266.64 164.877C267.082 164.568 267.391 164.081 267.391 163.495C267.391 162.92 267.082 162.422 266.64 162.112L282.44 134.692C282.65 134.791 282.881 134.847 283.135 134.847C284.019 134.847 284.714 134.172 284.814 133.309H316.447C316.535 134.172 317.241 134.847 318.114 134.847C318.368 134.847 318.6 134.791 318.809 134.692L334.62 162.123C334.19 162.433 333.892 162.92 333.892 163.484C333.892 164.059 334.19 164.535 334.62 164.844L318.809 192.276C318.6 192.176 318.357 192.121 318.114 192.121C317.23 192.121 316.535 192.807 316.447 193.658H284.792C284.703 192.796 283.997 192.121 283.124 192.121C282.882 192.121 282.65 192.176 282.429 192.276L266.64 164.877ZM334.907 161.946L319.096 134.515C319.527 134.205 319.825 133.729 319.825 133.154C319.825 132.579 319.527 132.103 319.096 131.794L334.907 104.362C335.128 104.462 335.36 104.528 335.614 104.528C336.497 104.528 337.193 103.853 337.281 102.991H368.925C369.013 103.853 369.709 104.528 370.592 104.528C370.846 104.528 371.078 104.473 371.288 104.373L387.099 131.805C386.668 132.114 386.37 132.601 386.37 133.165C386.37 133.74 386.668 134.216 387.099 134.526L371.288 161.957C371.078 161.858 370.846 161.802 370.592 161.802C369.709 161.802 369.013 162.488 368.925 163.351H337.281C337.193 162.488 336.497 161.802 335.614 161.802C335.349 161.791 335.117 161.847 334.907 161.946ZM159 163.495C159 164.435 159.762 165.198 160.7 165.198C160.943 165.198 161.175 165.143 161.385 165.054L177.185 192.475C176.754 192.785 176.456 193.26 176.456 193.835C176.456 194.776 177.218 195.539 178.167 195.539C179.051 195.539 179.746 194.864 179.835 194.001H211.49C211.578 194.864 212.273 195.539 213.157 195.539C213.411 195.539 213.643 195.483 213.852 195.384L229.663 222.826C229.233 223.136 228.935 223.612 228.935 224.187C228.935 225.127 229.696 225.89 230.635 225.89C231.518 225.89 232.214 225.205 232.302 224.353H263.946C264.034 225.216 264.73 225.89 265.613 225.89C266.552 225.89 267.313 225.127 267.313 224.187C267.313 223.612 267.015 223.136 266.585 222.826L282.396 195.384C282.617 195.483 282.848 195.539 283.091 195.539C283.975 195.539 284.67 194.864 284.758 194.001H316.413C316.502 194.864 317.208 195.539 318.081 195.539C319.019 195.539 319.792 194.776 319.792 193.824C319.792 193.249 319.494 192.773 319.063 192.464L334.874 165.032C335.084 165.132 335.316 165.187 335.57 165.187C336.453 165.187 337.149 164.512 337.237 163.65H368.881C368.969 164.512 369.665 165.187 370.548 165.187C370.802 165.187 371.034 165.132 371.244 165.032L387.055 192.475C386.624 192.785 386.326 193.271 386.326 193.835C386.326 194.776 387.088 195.55 388.026 195.55C388.909 195.55 389.605 194.875 389.693 194.012H421.337C421.426 194.875 422.121 195.55 423.004 195.55C423.943 195.55 424.705 194.787 424.705 193.846C424.705 193.271 424.407 192.796 423.976 192.486L439.787 165.054C439.997 165.154 440.24 165.209 440.483 165.209C441.366 165.209 442.073 164.523 442.15 163.672H473.783C473.871 164.535 474.567 165.209 475.45 165.209C475.704 165.209 475.936 165.154 476.145 165.054L491.956 192.486C491.526 192.796 491.217 193.282 491.217 193.857C491.217 194.422 491.515 194.908 491.945 195.218L476.134 222.661C475.925 222.561 475.682 222.506 475.439 222.506C474.556 222.506 473.86 223.191 473.772 224.043H442.139C442.05 223.18 441.344 222.506 440.472 222.506C439.533 222.506 438.771 223.269 438.771 224.209C438.771 224.784 439.069 225.26 439.5 225.57L423.689 253.001C423.479 252.902 423.247 252.846 422.993 252.846C422.055 252.846 421.293 253.609 421.293 254.55C421.293 255.49 422.055 256.253 422.993 256.253C423.247 256.253 423.479 256.198 423.689 256.098L439.5 283.53C439.069 283.839 438.771 284.326 438.771 284.89C438.771 285.83 439.533 286.594 440.472 286.594C441.355 286.594 442.05 285.919 442.139 285.056H473.761C473.849 285.919 474.556 286.594 475.428 286.594C475.682 286.594 475.914 286.527 476.134 286.439L491.945 313.881C491.515 314.191 491.217 314.667 491.217 315.242C491.217 316.182 491.978 316.945 492.917 316.945C493.8 316.945 494.496 316.271 494.595 315.408H526.228C526.316 316.271 527.012 316.945 527.895 316.945C528.834 316.945 529.607 316.182 529.607 315.242C529.607 314.678 529.309 314.191 528.878 313.881L544.689 286.439C544.899 286.538 545.13 286.594 545.384 286.594C546.268 286.594 546.963 285.919 547.052 285.056H578.695C578.784 285.919 579.479 286.594 580.363 286.594C580.617 286.594 580.849 286.538 581.058 286.439L596.869 313.881C596.439 314.191 596.14 314.667 596.14 315.242C596.14 316.182 596.902 316.945 597.841 316.945C598.724 316.945 599.42 316.271 599.508 315.408H631.152C631.24 316.271 631.936 316.945 632.819 316.945C633.758 316.945 634.519 316.182 634.519 315.242C634.519 314.678 634.221 314.191 633.791 313.881L649.602 286.439C649.811 286.538 650.043 286.594 650.297 286.594C651.236 286.594 651.998 285.83 651.998 284.89C651.998 283.95 651.236 283.176 650.297 283.176C650.043 283.176 649.811 283.242 649.602 283.342L633.802 255.932C634.254 255.623 634.575 255.136 634.575 254.539C634.575 253.598 633.813 252.835 632.874 252.835C631.991 252.835 631.295 253.521 631.207 254.384H599.563C599.475 253.521 598.779 252.835 597.896 252.835C597.631 252.835 597.377 252.913 597.156 253.023L581.345 225.592C581.798 225.282 582.118 224.784 582.118 224.198C582.118 223.258 581.356 222.495 580.418 222.495C579.535 222.495 578.828 223.18 578.751 224.043H547.052C546.963 223.18 546.257 222.506 545.384 222.506C545.141 222.506 544.91 222.561 544.689 222.661L528.878 195.229C529.309 194.919 529.607 194.433 529.607 193.868C529.607 193.304 529.309 192.829 528.889 192.519L544.733 165.043C544.954 165.154 545.208 165.231 545.473 165.231C546.411 165.231 547.173 164.468 547.173 163.528C547.173 162.588 546.411 161.825 545.473 161.825C545.208 161.825 544.954 161.902 544.733 162.013L528.922 134.581C529.375 134.271 529.695 133.785 529.695 133.187C529.695 132.247 528.933 131.484 527.995 131.484C527.111 131.484 526.405 132.17 526.327 133.033H494.672C494.584 132.17 493.878 131.484 493.005 131.484C492.74 131.484 492.497 131.55 492.277 131.661L476.466 104.218C476.918 103.909 477.227 103.422 477.227 102.836C477.227 102.25 476.918 101.763 476.477 101.453L492.288 74.0216C492.508 74.1322 492.751 74.1986 493.005 74.1986C493.889 74.1986 494.595 73.5128 494.684 72.6611V72.3293C494.595 71.4665 493.889 70.7918 493.005 70.7918C492.74 70.7918 492.508 70.8581 492.277 70.9688L476.51 43.482C476.951 43.1722 477.25 42.6856 477.25 42.1104C477.25 41.5352 476.94 41.0485 476.499 40.7388L476.223 40.5508C476.013 40.4623 475.781 40.407 475.538 40.407C474.655 40.407 473.959 41.0928 473.871 41.9445H442.227C442.139 41.0817 441.443 40.407 440.56 40.407C440.295 40.407 440.063 40.4733 439.842 40.5839L424.02 13.1303C424.451 12.8206 424.749 12.345 424.749 11.7698C424.749 10.8296 423.987 10.0664 423.049 10.0664C422.165 10.0664 421.47 10.7522 421.381 11.6039H389.738C389.649 10.7411 388.943 10.0664 388.059 10.0664C387.121 10.0664 386.359 10.8296 386.359 11.7698C386.359 12.3339 386.657 12.8206 387.088 13.1303L371.277 40.5729C371.067 40.4733 370.835 40.418 370.581 40.418C369.698 40.418 369.002 41.0928 368.914 41.9555H337.27C337.182 41.0928 336.475 40.418 335.592 40.418C335.349 40.418 335.117 40.4733 334.896 40.5729L334.62 40.7609C334.19 41.0706 333.892 41.5573 333.892 42.1214C333.892 42.6966 334.19 43.1722 334.62 43.482L318.809 70.9134C318.6 70.8139 318.357 70.7586 318.114 70.7586C317.23 70.7586 316.535 71.4444 316.447 72.2961V72.6279C316.535 73.4907 317.241 74.1654 318.114 74.1654C318.368 74.1654 318.6 74.1101 318.809 74.0106L334.62 101.453C334.19 101.763 333.903 102.238 333.903 102.814C333.903 103.378 334.201 103.864 334.631 104.174L318.82 131.606C318.611 131.506 318.368 131.451 318.125 131.451C317.241 131.451 316.535 132.137 316.458 132.999H284.814C284.725 132.137 284.019 131.451 283.135 131.451C282.197 131.451 281.435 132.214 281.435 133.154C281.435 133.729 281.733 134.205 282.164 134.515L266.364 161.935C266.154 161.847 265.933 161.791 265.69 161.791C264.807 161.791 264.112 162.477 264.023 163.34H232.379C232.291 162.477 231.595 161.791 230.712 161.791C230.436 161.791 230.193 161.869 229.961 161.979L214.139 134.526C214.581 134.216 214.89 133.729 214.89 133.143C214.89 132.203 214.128 131.44 213.19 131.44C212.307 131.44 211.6 132.126 211.523 132.988H179.868C179.779 132.126 179.084 131.44 178.201 131.44C177.262 131.44 176.5 132.203 176.5 133.143C176.5 133.707 176.787 134.183 177.207 134.493L161.396 161.935C161.186 161.847 160.954 161.791 160.711 161.791C159.762 161.791 159 162.555 159 163.495ZM371.288 43.6589L379.193 57.3636L387.11 71.0904C386.679 71.4001 386.381 71.8868 386.381 72.4509C386.381 73.0151 386.679 73.5017 387.11 73.8115L371.299 101.243C371.089 101.143 370.857 101.088 370.603 101.088C369.72 101.088 369.024 101.774 368.936 102.626H337.292C337.204 101.763 336.497 101.088 335.625 101.088C335.371 101.088 335.139 101.154 334.918 101.254L319.107 73.8115C319.538 73.5017 319.836 73.0261 319.836 72.4509C319.836 71.8868 319.538 71.4001 319.107 71.0904L334.918 43.6589C335.128 43.7585 335.36 43.8138 335.614 43.8138C336.497 43.8138 337.204 43.128 337.292 42.2763H368.936C369.024 43.1391 369.72 43.8138 370.603 43.8138C370.835 43.8138 371.067 43.7585 371.288 43.6589ZM438.882 102.803C438.882 103.356 439.169 103.831 439.588 104.141L423.777 131.584C423.568 131.495 423.347 131.44 423.104 131.44C422.221 131.44 421.514 132.126 421.437 132.988H389.749C389.66 132.126 388.965 131.44 388.081 131.44C387.827 131.44 387.596 131.506 387.375 131.606L371.564 104.174C371.994 103.864 372.304 103.378 372.304 102.814C372.304 102.238 372.005 101.763 371.575 101.453L387.386 74.0216C387.596 74.1212 387.827 74.1765 388.081 74.1765C388.965 74.1765 389.66 73.5017 389.749 72.639H421.404C421.492 73.5017 422.187 74.1765 423.071 74.1765C423.325 74.1765 423.557 74.1212 423.766 74.0216L439.588 101.475C439.169 101.774 438.882 102.238 438.882 102.803ZM438.86 42.1104C438.86 42.6745 439.147 43.1501 439.566 43.4598L423.755 70.9024C423.546 70.8028 423.314 70.7475 423.06 70.7475C422.176 70.7475 421.481 71.4333 421.392 72.285H389.738C389.649 71.4223 388.943 70.7475 388.07 70.7475C387.816 70.7475 387.585 70.8139 387.375 70.9024L379.469 57.1977L371.553 43.4709C371.983 43.1612 372.282 42.6745 372.282 42.1104C372.282 41.5463 371.983 41.0596 371.553 40.7499L387.364 13.3073C387.574 13.4069 387.816 13.4622 388.059 13.4622C388.943 13.4622 389.649 12.7764 389.738 11.9247H421.381C421.47 12.7874 422.176 13.4622 423.049 13.4622C423.303 13.4622 423.534 13.4069 423.744 13.3073L439.566 40.7609C439.158 41.0706 438.86 41.5463 438.86 42.1104ZM476.245 101.232C476.035 101.143 475.814 101.088 475.571 101.088C474.688 101.088 473.992 101.774 473.904 102.626H442.26C442.172 101.763 441.476 101.088 440.593 101.088C440.328 101.088 440.085 101.154 439.864 101.265L424.042 73.8225C424.473 73.5128 424.771 73.0261 424.771 72.462C424.771 71.8868 424.473 71.4112 424.042 71.1015L439.864 43.6589C440.085 43.7585 440.317 43.8248 440.582 43.8248C441.465 43.8248 442.161 43.1391 442.249 42.2874H473.893C473.981 43.1501 474.677 43.8248 475.56 43.8248C475.803 43.8248 476.024 43.7695 476.245 43.6811L492.067 71.1236C491.658 71.4333 491.371 71.9089 491.371 72.462C491.371 73.0261 491.658 73.4907 492.078 73.8115L476.245 101.232ZM582.14 284.89C582.14 284.315 581.842 283.839 581.412 283.53L597.245 256.065C597.465 256.176 597.708 256.253 597.984 256.253C598.857 256.253 599.563 255.578 599.652 254.716H631.295C631.384 255.578 632.09 256.253 632.963 256.253C633.195 256.253 633.415 256.209 633.614 256.12L649.414 283.541C648.983 283.85 648.685 284.337 648.685 284.901C648.685 285.476 648.983 285.952 649.414 286.262L633.603 313.704C633.393 313.605 633.15 313.538 632.907 313.538C632.024 313.538 631.329 314.224 631.24 315.076H599.596C599.508 314.213 598.801 313.538 597.929 313.538C597.675 313.538 597.443 313.605 597.234 313.704L581.423 286.262C581.842 285.941 582.14 285.465 582.14 284.89ZM544.755 283.342L528.944 255.91C529.375 255.6 529.673 255.114 529.673 254.55C529.673 253.974 529.375 253.499 528.944 253.189L544.755 225.758C544.965 225.857 545.197 225.912 545.451 225.912C546.334 225.912 547.03 225.227 547.118 224.375H578.817C578.905 225.238 579.612 225.912 580.484 225.912C580.716 225.912 580.937 225.868 581.136 225.78L596.946 253.222C596.538 253.532 596.262 254.008 596.262 254.55C596.262 255.103 596.538 255.567 596.946 255.888L581.113 283.353C580.893 283.253 580.661 283.187 580.418 283.187C579.535 283.187 578.839 283.873 578.751 284.724H547.107C547.018 283.862 546.323 283.187 545.44 283.187C545.208 283.187 544.976 283.242 544.755 283.342ZM476.477 286.251C476.907 285.941 477.205 285.465 477.205 284.89C477.205 284.326 476.918 283.85 476.488 283.53L492.299 256.098C492.508 256.187 492.74 256.253 492.983 256.253C493.866 256.253 494.573 255.567 494.661 254.716H526.294C526.383 255.578 527.078 256.253 527.961 256.253C528.215 256.253 528.447 256.198 528.657 256.098L544.468 283.53C544.037 283.839 543.75 284.326 543.75 284.89C543.75 285.465 544.048 285.941 544.479 286.251L528.668 313.693C528.447 313.594 528.215 313.527 527.961 313.527C527.078 313.527 526.383 314.213 526.294 315.065H494.661C494.573 314.202 493.866 313.527 492.983 313.527C492.74 313.527 492.497 313.583 492.288 313.682L476.477 286.251ZM476.201 225.747L492.012 253.178C491.581 253.488 491.283 253.963 491.283 254.539C491.283 255.114 491.581 255.589 492.012 255.899L476.201 283.342C475.98 283.242 475.748 283.176 475.494 283.176C474.611 283.176 473.915 283.862 473.827 284.713H442.205C442.117 283.85 441.41 283.176 440.538 283.176C440.284 283.176 440.052 283.242 439.842 283.342L424.031 255.91C424.462 255.6 424.76 255.114 424.76 254.55C424.76 253.974 424.462 253.499 424.031 253.189L439.831 225.747C440.041 225.846 440.284 225.901 440.527 225.901C441.41 225.901 442.106 225.216 442.194 224.364H473.827C473.915 225.227 474.611 225.901 475.494 225.901C475.748 225.912 475.991 225.846 476.201 225.747ZM492.288 195.395C492.497 195.494 492.74 195.55 492.983 195.55C493.866 195.55 494.562 194.875 494.65 194.012H526.294C526.383 194.875 527.078 195.55 527.961 195.55C528.215 195.55 528.447 195.494 528.657 195.395L544.468 222.826C544.037 223.136 543.739 223.623 543.739 224.187C543.739 224.762 544.037 225.238 544.468 225.547L528.657 252.979C528.447 252.879 528.204 252.824 527.961 252.824C527.078 252.824 526.383 253.51 526.294 254.362H494.661C494.573 253.499 493.866 252.824 492.983 252.824C492.74 252.824 492.508 252.879 492.299 252.979L476.488 225.547C476.918 225.238 477.205 224.762 477.205 224.187C477.205 223.623 476.907 223.136 476.477 222.826L492.288 195.395ZM476.499 164.866C476.929 164.557 477.227 164.07 477.227 163.506C477.227 162.942 476.929 162.455 476.51 162.145L492.332 134.681C492.553 134.791 492.795 134.858 493.06 134.858C493.944 134.858 494.639 134.183 494.728 133.32H526.383C526.471 134.183 527.178 134.858 528.05 134.858C528.282 134.858 528.502 134.813 528.701 134.725L544.512 162.167C544.104 162.477 543.828 162.953 543.828 163.495C543.828 164.048 544.104 164.512 544.512 164.822L528.679 192.309C528.458 192.209 528.226 192.143 527.961 192.143C527.089 192.143 526.383 192.818 526.294 193.68H494.65C494.562 192.818 493.866 192.143 492.983 192.143C492.74 192.143 492.508 192.198 492.299 192.287L476.499 164.866ZM431.948 148.242L424.042 134.526C424.484 134.216 424.804 133.729 424.804 133.143C424.804 132.568 424.495 132.07 424.053 131.76L439.864 104.318C440.085 104.429 440.328 104.495 440.593 104.495C441.476 104.495 442.172 103.82 442.26 102.957H473.904C473.992 103.82 474.688 104.495 475.571 104.495C475.814 104.495 476.035 104.44 476.245 104.351L492.056 131.794C491.636 132.103 491.36 132.579 491.36 133.132C491.36 133.685 491.647 134.161 492.056 134.47L476.234 161.935C476.024 161.836 475.781 161.78 475.538 161.78C474.655 161.78 473.959 162.455 473.871 163.318H442.238C442.15 162.455 441.443 161.78 440.571 161.78C440.317 161.78 440.085 161.836 439.875 161.935L431.948 148.242ZM371.564 164.855C371.994 164.546 372.293 164.07 372.293 163.495C372.293 162.92 371.994 162.444 371.564 162.134L387.375 134.703C387.585 134.802 387.816 134.858 388.07 134.858C388.954 134.858 389.649 134.183 389.738 133.32H421.426C421.514 134.183 422.221 134.858 423.093 134.858C423.325 134.858 423.557 134.802 423.766 134.714L431.661 148.407L439.577 162.134C439.147 162.444 438.849 162.92 438.849 163.495C438.849 164.07 439.147 164.546 439.577 164.855L423.766 192.298C423.557 192.198 423.314 192.143 423.071 192.143C422.187 192.143 421.492 192.829 421.404 193.68H389.76C389.671 192.818 388.976 192.143 388.092 192.143C387.839 192.143 387.607 192.209 387.397 192.298L371.564 164.855Z" fill="white"/>
<path opacity="0.2" d="M222.453 164.534C222.784 164.302 223.016 163.937 223.016 163.505C223.016 163.074 222.784 162.709 222.453 162.477L234.322 141.881C234.488 141.958 234.665 142.014 234.863 142.014C235.526 142.014 236.056 141.505 236.122 140.863H259.883C259.949 141.505 260.479 142.014 261.141 142.014C261.318 142.014 261.495 141.981 261.649 141.903L273.53 162.51C273.231 162.742 273.022 163.096 273.022 163.505C273.022 163.915 273.231 164.269 273.53 164.501L261.649 185.119C261.495 185.052 261.318 185.008 261.13 185.008C260.468 185.008 259.938 185.517 259.872 186.17H236.1C236.034 185.528 235.504 185.008 234.852 185.008C234.665 185.008 234.488 185.052 234.322 185.13L222.453 164.534ZM262.4 186.291C262.4 185.86 262.179 185.495 261.848 185.263L273.728 164.645C273.894 164.722 274.082 164.777 274.28 164.777C274.943 164.777 275.462 164.269 275.539 163.627H299.299C299.366 164.269 299.896 164.777 300.547 164.777C300.724 164.777 300.889 164.744 301.044 164.678L312.902 185.263C312.582 185.495 312.361 185.86 312.361 186.291C312.361 186.723 312.582 187.077 312.902 187.309L301.033 207.905C300.867 207.827 300.702 207.783 300.503 207.783C299.841 207.783 299.322 208.292 299.255 208.933H275.506C275.44 208.292 274.91 207.783 274.247 207.783C274.059 207.783 273.883 207.827 273.728 207.905L261.859 187.309C262.168 187.077 262.4 186.712 262.4 186.291ZM301.254 164.534C301.585 164.302 301.817 163.937 301.817 163.494C301.817 163.063 301.585 162.687 301.254 162.466L313.112 141.881C313.267 141.947 313.443 142.003 313.631 142.003C314.293 142.003 314.823 141.494 314.89 140.852H338.639C338.705 141.494 339.235 142.003 339.898 142.003C340.085 142.003 340.262 141.958 340.417 141.892L352.286 162.488C351.966 162.72 351.745 163.085 351.745 163.505C351.745 163.937 351.977 164.302 352.297 164.523L340.428 185.119C340.262 185.041 340.085 184.997 339.898 184.997C339.235 184.997 338.705 185.506 338.639 186.158H314.879C314.812 185.517 314.282 184.997 313.62 184.997C313.432 184.997 313.255 185.041 313.101 185.108L301.254 164.534ZM352.518 162.333L340.649 141.737C340.969 141.505 341.201 141.14 341.201 140.72C341.201 140.288 340.969 139.923 340.649 139.691L352.518 119.095C352.683 119.173 352.86 119.217 353.048 119.217C353.71 119.217 354.24 118.708 354.306 118.066H378.056C378.122 118.708 378.652 119.217 379.304 119.217C379.491 119.217 379.668 119.173 379.822 119.095L391.692 139.691C391.371 139.923 391.151 140.288 391.151 140.708C391.151 141.14 391.371 141.494 391.692 141.726L379.822 162.322C379.657 162.256 379.491 162.2 379.304 162.2C378.641 162.2 378.111 162.709 378.045 163.362H354.284C354.218 162.72 353.688 162.2 353.026 162.2C352.849 162.211 352.672 162.267 352.518 162.333ZM220.455 163.494C220.455 164.202 221.029 164.777 221.736 164.777C221.923 164.777 222.089 164.733 222.243 164.667L234.113 185.263C233.792 185.495 233.572 185.86 233.572 186.291C233.572 186.999 234.146 187.574 234.852 187.574C235.515 187.574 236.045 187.066 236.1 186.413H259.861C259.927 187.054 260.457 187.574 261.119 187.574C261.307 187.574 261.484 187.53 261.638 187.453L273.507 208.048C273.187 208.281 272.966 208.646 272.966 209.066C272.966 209.774 273.541 210.349 274.247 210.349C274.91 210.349 275.44 209.84 275.506 209.188H299.255C299.322 209.829 299.852 210.349 300.503 210.349C301.21 210.349 301.784 209.774 301.784 209.066C301.784 208.635 301.563 208.281 301.243 208.048L313.112 187.453C313.278 187.53 313.443 187.574 313.642 187.574C314.304 187.574 314.834 187.066 314.901 186.413H338.661C338.727 187.054 339.257 187.574 339.92 187.574C340.626 187.574 341.201 186.999 341.201 186.291C341.201 185.86 340.98 185.506 340.649 185.274L352.518 164.678C352.683 164.755 352.849 164.788 353.037 164.788C353.699 164.788 354.229 164.28 354.295 163.638H378.056C378.122 164.28 378.652 164.788 379.315 164.788C379.502 164.788 379.679 164.744 379.834 164.667L391.703 185.263C391.383 185.495 391.162 185.86 391.162 186.28C391.162 186.988 391.736 187.563 392.442 187.563C393.105 187.563 393.635 187.054 393.701 186.402H417.451C417.517 187.043 418.047 187.563 418.709 187.563C419.416 187.563 419.99 186.988 419.99 186.28C419.99 185.849 419.769 185.484 419.438 185.251L431.307 164.656C431.473 164.733 431.639 164.777 431.837 164.777C432.5 164.777 433.03 164.269 433.096 163.616H456.845C456.912 164.269 457.442 164.777 458.104 164.777C458.292 164.777 458.468 164.733 458.634 164.656L470.503 185.251C470.172 185.484 469.951 185.849 469.951 186.28C469.951 186.712 470.172 187.066 470.492 187.298L458.623 207.894C458.457 207.816 458.281 207.772 458.093 207.772C457.431 207.772 456.912 208.281 456.845 208.933H433.096C433.03 208.292 432.5 207.772 431.837 207.772C431.131 207.772 430.556 208.347 430.556 209.055C430.556 209.486 430.777 209.84 431.097 210.073L419.228 230.668C419.074 230.591 418.897 230.547 418.709 230.547C418.003 230.547 417.429 231.122 417.429 231.83C417.429 232.538 418.003 233.113 418.709 233.113C418.897 233.113 419.074 233.069 419.239 232.991L431.109 253.587C430.788 253.819 430.568 254.184 430.568 254.605C430.568 255.312 431.142 255.888 431.848 255.888C432.511 255.888 433.041 255.379 433.107 254.737H456.845C456.912 255.379 457.442 255.888 458.104 255.888C458.292 255.888 458.468 255.843 458.634 255.766L470.503 276.362C470.183 276.594 469.951 276.959 469.951 277.379C469.951 278.087 470.525 278.662 471.232 278.662C471.894 278.662 472.424 278.154 472.491 277.501H496.24C496.306 278.142 496.836 278.662 497.499 278.662C498.206 278.662 498.78 278.087 498.78 277.379C498.78 276.948 498.559 276.594 498.239 276.362L510.108 255.766C510.273 255.832 510.439 255.888 510.627 255.888C511.289 255.888 511.819 255.379 511.874 254.737H535.624C535.69 255.379 536.22 255.888 536.883 255.888C537.07 255.888 537.247 255.843 537.413 255.766L549.282 276.362C548.962 276.594 548.741 276.959 548.741 277.379C548.741 278.087 549.315 278.662 550.022 278.662C550.684 278.662 551.214 278.154 551.28 277.501H575.03C575.096 278.142 575.626 278.662 576.288 278.662C576.995 278.662 577.569 278.087 577.569 277.379C577.569 276.948 577.348 276.594 577.028 276.362L588.897 255.766C589.063 255.832 589.229 255.888 589.416 255.888C590.123 255.888 590.697 255.312 590.697 254.605C590.697 253.897 590.123 253.321 589.416 253.321C589.229 253.321 589.052 253.366 588.886 253.443L577.028 232.858C577.37 232.626 577.602 232.261 577.602 231.819C577.602 231.111 577.028 230.536 576.322 230.536C575.659 230.536 575.129 231.044 575.063 231.697H551.313C551.247 231.055 550.717 230.536 550.055 230.536C549.856 230.536 549.668 230.591 549.503 230.679L537.633 210.084C537.976 209.851 538.208 209.475 538.208 209.033C538.208 208.325 537.633 207.75 536.927 207.75C536.264 207.75 535.734 208.259 535.668 208.911H511.874C511.808 208.27 511.278 207.75 510.616 207.75C510.428 207.75 510.251 207.794 510.097 207.871L498.228 187.276C498.548 187.043 498.78 186.678 498.78 186.258C498.78 185.838 498.559 185.473 498.239 185.24L510.13 164.612C510.296 164.689 510.483 164.755 510.682 164.755C511.389 164.755 511.963 164.18 511.963 163.472C511.963 162.764 511.389 162.189 510.682 162.189C510.483 162.189 510.296 162.244 510.119 162.333L498.25 141.737C498.592 141.505 498.824 141.129 498.824 140.686C498.824 139.978 498.25 139.403 497.543 139.403C496.881 139.403 496.351 139.912 496.284 140.565H472.524C472.458 139.912 471.928 139.403 471.265 139.403C471.066 139.403 470.89 139.459 470.724 139.536L458.855 118.94C459.186 118.708 459.418 118.343 459.418 117.901C459.418 117.469 459.186 117.093 458.855 116.861L470.724 96.265C470.89 96.3425 471.066 96.3978 471.265 96.3978C471.928 96.3978 472.458 95.889 472.524 95.2474V94.993C472.458 94.3515 471.928 93.8316 471.265 93.8316C471.066 93.8316 470.89 93.8869 470.724 93.9644L458.855 73.3575C459.186 73.1253 459.407 72.7602 459.407 72.3289C459.407 71.8975 459.175 71.5325 458.844 71.3002L458.634 71.1564C458.48 71.09 458.303 71.0458 458.126 71.0458C457.464 71.0458 456.934 71.5546 456.867 72.2072H433.096C433.03 71.5656 432.5 71.0458 431.837 71.0458C431.639 71.0458 431.462 71.1011 431.296 71.1785L419.416 50.5717C419.736 50.3394 419.957 49.9744 419.957 49.5541C419.957 48.8462 419.383 48.271 418.676 48.271C418.014 48.271 417.484 48.7798 417.418 49.4324H393.679C393.613 48.7909 393.083 48.271 392.42 48.271C391.714 48.271 391.14 48.8462 391.14 49.5541C391.14 49.9855 391.36 50.3394 391.681 50.5717L379.811 71.1674C379.646 71.09 379.48 71.0458 379.292 71.0458C378.63 71.0458 378.1 71.5546 378.034 72.1961H354.284C354.218 71.5546 353.688 71.0458 353.026 71.0458C352.838 71.0458 352.661 71.09 352.507 71.1564L352.297 71.3002C351.977 71.5325 351.745 71.8975 351.745 72.3289C351.745 72.7602 351.966 73.1142 352.286 73.3465L340.417 93.9422C340.251 93.8648 340.085 93.8206 339.898 93.8206C339.235 93.8206 338.705 94.3294 338.639 94.982V95.2364C338.705 95.8779 339.235 96.3978 339.898 96.3978C340.085 96.3978 340.262 96.3535 340.417 96.2761L352.286 116.872C351.966 117.104 351.745 117.469 351.745 117.889C351.745 118.321 351.966 118.675 352.286 118.907L340.417 139.503C340.251 139.425 340.085 139.381 339.898 139.381C339.235 139.381 338.705 139.89 338.639 140.543H314.89C314.823 139.89 314.293 139.381 313.631 139.381C312.924 139.381 312.35 139.956 312.35 140.664C312.35 141.096 312.571 141.45 312.902 141.693L301.044 162.278C300.889 162.211 300.724 162.167 300.536 162.167C299.874 162.167 299.344 162.676 299.288 163.328H275.539C275.473 162.676 274.943 162.167 274.28 162.167C274.082 162.167 273.894 162.222 273.717 162.311L261.837 141.704C262.168 141.472 262.4 141.107 262.4 140.664C262.4 139.956 261.826 139.381 261.119 139.381C260.457 139.381 259.927 139.89 259.861 140.543H236.1C236.034 139.89 235.504 139.381 234.841 139.381C234.135 139.381 233.561 139.956 233.561 140.664C233.561 141.085 233.781 141.439 234.091 141.671L222.221 162.267C222.067 162.2 221.89 162.156 221.713 162.156C221.018 162.211 220.455 162.786 220.455 163.494ZM379.822 73.5235L385.752 83.8103L391.692 94.1192C391.371 94.3515 391.14 94.7165 391.14 95.1479C391.14 95.5793 391.36 95.9332 391.692 96.1655L379.822 116.761C379.668 116.684 379.491 116.64 379.304 116.64C378.641 116.64 378.111 117.148 378.056 117.801H354.306C354.24 117.159 353.71 116.64 353.048 116.64C352.86 116.64 352.683 116.684 352.518 116.761L340.649 96.1655C340.969 95.9332 341.201 95.5682 341.201 95.1479C341.201 94.7165 340.98 94.3625 340.66 94.1303L352.529 73.5345C352.694 73.6119 352.86 73.6562 353.048 73.6562C353.71 73.6562 354.24 73.1474 354.306 72.4948H378.056C378.122 73.1363 378.652 73.6562 379.315 73.6562C379.491 73.6451 379.668 73.6009 379.822 73.5235ZM430.579 117.923C430.579 118.343 430.799 118.697 431.109 118.929L419.239 139.525C419.085 139.459 418.908 139.414 418.731 139.414C418.069 139.414 417.539 139.923 417.473 140.576H393.679C393.613 139.923 393.083 139.414 392.42 139.414C392.233 139.414 392.056 139.459 391.89 139.536L380.021 118.94C380.352 118.708 380.573 118.343 380.573 117.912C380.573 117.48 380.341 117.126 380.021 116.894L391.89 96.2982C392.056 96.3646 392.222 96.4199 392.409 96.4199C393.072 96.4199 393.602 95.9111 393.668 95.2585H417.429C417.495 95.9 418.025 96.4199 418.687 96.4199C418.875 96.4199 419.052 96.3757 419.206 96.2982L431.086 116.905C430.788 117.159 430.579 117.513 430.579 117.923ZM430.556 72.362C430.556 72.7824 430.777 73.1363 431.086 73.3686L419.217 93.9754C419.052 93.898 418.886 93.8537 418.698 93.8537C418.036 93.8537 417.506 94.3625 417.44 95.0152H393.679C393.613 94.3736 393.083 93.8537 392.42 93.8537C392.233 93.8537 392.056 93.898 391.89 93.9754L385.961 83.6886L380.021 73.3797C380.341 73.1474 380.573 72.7824 380.573 72.351C380.573 71.9196 380.352 71.5657 380.021 71.3334L391.89 50.7376C392.056 50.815 392.222 50.8593 392.409 50.8593C393.072 50.8593 393.602 50.3505 393.668 49.6979H417.418C417.484 50.3394 418.014 50.8593 418.676 50.8593C418.864 50.8593 419.041 50.815 419.195 50.7376L431.075 71.3444C430.777 71.5767 430.556 71.9417 430.556 72.362ZM458.623 116.75C458.468 116.684 458.303 116.64 458.115 116.64C457.453 116.64 456.923 117.148 456.856 117.801H433.096C433.03 117.159 432.5 116.64 431.837 116.64C431.639 116.64 431.462 116.695 431.296 116.772L419.416 96.1655C419.736 95.9332 419.968 95.5682 419.968 95.1479C419.968 94.7165 419.747 94.3515 419.416 94.1192L431.285 73.5124C431.451 73.5898 431.627 73.6341 431.826 73.6341C432.489 73.6341 433.019 73.1253 433.085 72.4727H456.834C456.901 73.1142 457.431 73.6341 458.093 73.6341C458.27 73.6341 458.446 73.5898 458.601 73.5235L470.47 94.1303C470.161 94.3625 469.951 94.7165 469.951 95.1368C469.951 95.5571 470.161 95.9111 470.481 96.1434L458.623 116.75ZM538.13 254.638C538.13 254.206 537.909 253.852 537.589 253.62L549.469 232.991C549.635 233.08 549.823 233.135 550.022 233.135C550.684 233.135 551.203 232.626 551.269 231.985H575.03C575.096 232.626 575.626 233.135 576.288 233.135C576.465 233.135 576.631 233.102 576.785 233.035L588.643 253.62C588.323 253.852 588.102 254.217 588.102 254.638C588.102 255.069 588.323 255.423 588.643 255.655L576.774 276.251C576.609 276.174 576.443 276.129 576.244 276.129C575.582 276.129 575.052 276.638 574.986 277.28H551.236C551.17 276.638 550.64 276.129 549.977 276.129C549.79 276.129 549.613 276.174 549.458 276.251L537.589 255.655C537.898 255.423 538.13 255.069 538.13 254.638ZM510.064 253.476L498.194 232.881C498.515 232.648 498.735 232.283 498.735 231.863C498.735 231.443 498.515 231.078 498.194 230.845L510.064 210.25C510.218 210.316 510.395 210.36 510.583 210.36C511.245 210.36 511.775 209.851 511.841 209.21H535.635C535.701 209.851 536.231 210.36 536.883 210.36C537.059 210.36 537.225 210.327 537.379 210.261L549.249 230.867C548.94 231.1 548.73 231.454 548.73 231.863C548.73 232.283 548.94 232.626 549.249 232.869L537.368 253.487C537.203 253.421 537.026 253.366 536.838 253.366C536.176 253.366 535.646 253.874 535.58 254.527H511.83C511.764 253.886 511.234 253.366 510.583 253.366C510.406 253.355 510.229 253.399 510.064 253.476ZM458.8 255.655C459.12 255.423 459.341 255.058 459.341 254.638C459.341 254.217 459.12 253.852 458.8 253.62L470.669 233.024C470.823 233.091 471 233.135 471.188 233.135C471.85 233.135 472.38 232.626 472.447 231.974H496.196C496.262 232.626 496.792 233.135 497.455 233.135C497.642 233.135 497.819 233.091 497.985 233.013L509.854 253.609C509.534 253.841 509.313 254.206 509.313 254.627C509.313 255.058 509.534 255.412 509.865 255.644L497.996 276.24C497.83 276.163 497.653 276.118 497.466 276.118C496.803 276.118 496.273 276.627 496.207 277.269H472.458C472.391 276.627 471.861 276.118 471.199 276.118C471.011 276.118 470.835 276.163 470.68 276.229L458.8 255.655ZM458.59 210.227L470.459 230.823C470.139 231.055 469.907 231.42 469.907 231.841C469.907 232.272 470.128 232.637 470.459 232.869L458.59 253.465C458.424 253.388 458.248 253.344 458.06 253.344C457.397 253.344 456.867 253.852 456.801 254.505H433.063C432.997 253.863 432.467 253.344 431.804 253.344C431.616 253.344 431.44 253.388 431.274 253.465L419.405 232.869C419.725 232.637 419.957 232.272 419.957 231.852C419.957 231.42 419.736 231.066 419.405 230.834L431.274 210.238C431.44 210.316 431.605 210.36 431.804 210.36C432.467 210.36 432.997 209.851 433.063 209.21H456.812C456.879 209.851 457.409 210.36 458.06 210.36C458.259 210.349 458.435 210.305 458.59 210.227ZM470.669 187.453C470.835 187.53 471 187.574 471.199 187.574C471.861 187.574 472.391 187.066 472.458 186.413H496.207C496.273 187.054 496.803 187.574 497.455 187.574C497.642 187.574 497.819 187.53 497.985 187.453L509.854 208.048C509.534 208.281 509.302 208.646 509.302 209.066C509.302 209.486 509.523 209.851 509.843 210.084L497.974 230.679C497.808 230.602 497.631 230.558 497.444 230.558C496.781 230.558 496.251 231.067 496.185 231.719H472.436C472.369 231.078 471.839 230.558 471.177 230.558C470.989 230.558 470.824 230.602 470.658 230.668L458.789 210.073C459.109 209.84 459.33 209.475 459.33 209.055C459.33 208.624 459.109 208.27 458.789 208.037L470.669 187.453ZM458.822 164.523C459.142 164.291 459.363 163.926 459.363 163.505C459.363 163.074 459.142 162.72 458.822 162.488L470.702 141.87C470.868 141.947 471.044 142.003 471.243 142.003C471.906 142.003 472.424 141.494 472.491 140.852H496.262C496.328 141.494 496.858 142.003 497.51 142.003C497.687 142.003 497.852 141.969 497.996 141.903L509.865 162.51C509.556 162.742 509.357 163.096 509.357 163.505C509.357 163.926 509.567 164.269 509.876 164.501L497.985 185.13C497.819 185.052 497.642 185.008 497.444 185.008C496.781 185.008 496.262 185.517 496.196 186.158H472.447C472.38 185.517 471.85 185.008 471.188 185.008C471 185.008 470.835 185.052 470.68 185.119L458.822 164.523ZM425.367 152.046L419.438 141.748C419.769 141.516 420.001 141.151 420.001 140.708C420.001 140.277 419.769 139.901 419.438 139.68L431.307 119.084C431.473 119.161 431.65 119.217 431.848 119.217C432.511 119.217 433.03 118.708 433.107 118.066H456.867C456.934 118.708 457.464 119.217 458.126 119.217C458.303 119.217 458.48 119.184 458.634 119.106L470.503 139.713C470.194 139.945 469.984 140.299 469.984 140.72C469.984 141.14 470.194 141.494 470.503 141.726L458.623 162.344C458.457 162.278 458.292 162.222 458.104 162.222C457.442 162.222 456.912 162.731 456.845 163.384H433.096C433.03 162.742 432.5 162.222 431.837 162.222C431.65 162.222 431.473 162.267 431.318 162.344L425.367 152.046ZM380.032 164.523C380.352 164.291 380.584 163.926 380.584 163.505C380.584 163.074 380.363 162.72 380.032 162.488L391.901 141.892C392.056 141.969 392.233 142.003 392.42 142.003C393.083 142.003 393.613 141.494 393.679 140.852H417.473C417.539 141.494 418.069 142.003 418.72 142.003C418.897 142.003 419.074 141.969 419.228 141.903L425.157 152.179L431.097 162.488C430.777 162.72 430.556 163.085 430.556 163.505C430.556 163.937 430.777 164.291 431.097 164.523L419.228 185.119C419.063 185.041 418.886 184.997 418.698 184.997C418.036 184.997 417.506 185.506 417.44 186.158H393.69C393.624 185.517 393.094 184.997 392.431 184.997C392.244 184.997 392.067 185.041 391.913 185.119L380.032 164.523Z" fill="white"/>
</g>
<path d="M303.253 163.36H301.289V161.398C301.289 161.136 301.075 160.922 300.813 160.922H299.364C299.102 160.922 298.888 161.136 298.888 161.398V163.36H296.924C296.662 163.36 296.448 163.574 296.448 163.836V165.283C296.448 165.545 296.662 165.759 296.924 165.759H298.888V167.721C298.888 167.984 299.102 168.197 299.364 168.197H300.813C301.075 168.197 301.289 167.984 301.289 167.721V165.759H303.253C303.515 165.759 303.729 165.545 303.729 165.283V163.836C303.729 163.574 303.515 163.36 303.253 163.36Z" fill="white"/>
<path d="M307.384 154.317H305.809C305.809 152.491 305.129 150.616 300.093 150.616C295.058 150.616 294.377 152.491 294.377 154.317H292.803C292.803 149.033 298.295 149.033 300.103 149.033C301.892 149.033 307.384 149.033 307.384 154.317Z" fill="white"/>
<path d="M306.995 155.036H293.182C290.567 155.036 288.448 157.153 288.448 159.766V169.363C288.448 171.976 290.567 174.093 293.182 174.093H306.995C309.61 174.093 311.729 171.976 311.729 169.363V159.766C311.729 157.153 309.61 155.036 306.995 155.036ZM300.084 170.208C296.963 170.208 294.436 167.682 294.436 164.564C294.436 161.446 296.963 158.921 300.084 158.921C303.204 158.921 305.731 161.446 305.731 164.564C305.731 167.682 303.204 170.208 300.084 170.208Z" fill="white"/>
<path d="M418.394 105.872C417.859 106.387 417.12 106.707 416.313 106.707C415.507 106.707 414.778 106.387 414.233 105.872C413.932 105.921 413.64 105.989 413.368 106.076C414.136 106.941 414.593 108.116 414.593 109.699H422C422 107.3 420.503 106.241 418.394 105.872Z" fill="white"/>
<path d="M413.407 102.113C413.358 102.326 413.329 102.56 413.329 102.793C413.329 104.444 414.671 105.784 416.323 105.784C417.976 105.784 419.317 104.444 419.317 102.793C419.317 102.56 419.288 102.336 419.239 102.113H413.407Z" fill="white"/>
<path d="M417.936 98.5386H414.69C413.805 98.5386 413.076 99.2671 413.076 100.151L413.407 101.773H419.229L419.56 100.151C419.55 99.2671 418.831 98.5386 417.936 98.5386ZM416.313 101.433C415.613 101.433 415.04 100.87 415.04 100.161C415.04 99.4614 415.603 98.8883 416.313 98.8883C417.013 98.8883 417.587 99.4516 417.587 100.161C417.587 100.86 417.013 101.433 416.313 101.433Z" fill="white"/>
<path d="M417.139 99.8491H416.624V99.3343C416.624 99.2663 416.566 99.208 416.498 99.208H416.119C416.051 99.208 415.992 99.2663 415.992 99.3343V99.8491H415.477C415.409 99.8491 415.351 99.9074 415.351 99.9754V100.354C415.351 100.422 415.409 100.48 415.477 100.48H415.992V100.995C415.992 101.063 416.051 101.122 416.119 101.122H416.498C416.566 101.122 416.624 101.063 416.624 100.995V100.48H417.139C417.207 100.48 417.266 100.422 417.266 100.354V99.9754C417.266 99.9074 417.207 99.8491 417.139 99.8491Z" fill="white"/>
<path d="M408.77 104.153C407.992 104.91 406.933 105.367 405.757 105.367C404.59 105.367 403.521 104.901 402.743 104.153C399.681 104.677 397.513 106.212 397.513 109.699H414C414 106.212 411.832 104.677 408.77 104.153Z" fill="white"/>
<path d="M401.527 98.7036C401.45 99.0242 401.411 99.3447 401.411 99.6847C401.411 102.084 403.355 104.017 405.746 104.017C408.138 104.017 410.082 102.074 410.082 99.6847C410.082 99.3447 410.043 99.0144 409.965 98.7036H401.527Z" fill="white"/>
<path d="M408.108 93.5161H403.394C402.101 93.5161 401.051 94.5749 401.051 95.8571L401.528 98.2077H409.975L410.451 95.8571C410.451 94.5652 409.392 93.5161 408.108 93.5161ZM405.756 97.7026C404.735 97.7026 403.909 96.877 403.909 95.8571C403.909 94.8371 404.735 94.0115 405.756 94.0115C406.777 94.0115 407.603 94.8371 407.603 95.8571C407.593 96.877 406.767 97.7026 405.756 97.7026Z" fill="white"/>
<path d="M406.953 95.4101H406.214V94.6719C406.214 94.5747 406.136 94.4873 406.039 94.4873H405.494C405.397 94.4873 405.31 94.565 405.31 94.6719V95.4101H404.561C404.464 95.4101 404.377 95.4878 404.377 95.5946V96.1386C404.377 96.2357 404.454 96.3135 404.561 96.3135H405.31V97.0517C405.31 97.1488 405.388 97.2362 405.494 97.2362H406.039C406.136 97.2362 406.214 97.1585 406.214 97.0517V96.3037H406.953C407.05 96.3037 407.137 96.226 407.137 96.1289V95.5849C407.128 95.4878 407.05 95.4101 406.953 95.4101Z" fill="white"/>
<path d="M397.271 105.872C396.736 106.387 395.997 106.707 395.19 106.707C394.384 106.707 393.655 106.387 393.11 105.872C391.001 106.241 389.504 107.29 389.504 109.699H396.911C396.911 108.116 397.358 106.941 398.126 106.076C397.864 105.998 397.572 105.93 397.271 105.872Z" fill="white"/>
<path d="M392.284 102.113C392.235 102.326 392.206 102.56 392.206 102.793C392.206 104.444 393.548 105.784 395.2 105.784C396.853 105.784 398.194 104.444 398.194 102.793C398.194 102.56 398.165 102.336 398.116 102.113H392.284Z" fill="white"/>
<path d="M396.814 98.5386H393.567C392.683 98.5386 391.954 99.2671 391.954 100.151L392.284 101.773H398.107L398.437 100.151C398.428 99.2671 397.708 98.5386 396.814 98.5386ZM395.191 101.433C394.491 101.433 393.917 100.87 393.917 100.161C393.917 99.4614 394.481 98.8883 395.191 98.8883C395.891 98.8883 396.464 99.4516 396.464 100.161C396.464 100.86 395.891 101.433 395.191 101.433Z" fill="white"/>
<path d="M396.016 99.8491H395.501V99.3343C395.501 99.2663 395.443 99.208 395.375 99.208H394.996C394.928 99.208 394.869 99.2663 394.869 99.3343V99.8491H394.354C394.286 99.8491 394.228 99.9074 394.228 99.9754V100.354C394.228 100.422 394.286 100.48 394.354 100.48H394.869V100.995C394.869 101.063 394.928 101.122 394.996 101.122H395.375C395.443 101.122 395.501 101.063 395.501 100.995V100.48H396.016C396.084 100.48 396.143 100.422 396.143 100.354V99.9754C396.143 99.9074 396.084 99.8491 396.016 99.8491Z" fill="white"/>
<path d="M196.603 162.48C199.956 159.449 203.242 156.176 203.242 149.959H201.93C201.93 155.68 198.926 158.623 195.621 161.596C192.316 158.614 189.312 155.67 189.312 149.959H188C188 156.176 191.286 159.449 194.639 162.48C191.286 165.51 188 168.784 188 175H189.312C189.312 169.279 192.316 166.336 195.621 163.363C198.926 166.346 201.93 169.289 201.93 175H203.242C203.252 168.784 199.956 165.51 196.603 162.48Z" fill="white"/>
<path d="M199.937 169.434C199.937 169.657 199.733 169.842 199.471 169.842H191.791C191.539 169.842 191.325 169.657 191.325 169.434C191.325 169.21 191.529 169.026 191.791 169.026H199.471C199.723 169.026 199.937 169.21 199.937 169.434Z" fill="white"/>
<path d="M201.065 172.571C201.065 172.794 200.861 172.979 200.599 172.979H190.654C190.402 172.979 190.188 172.794 190.188 172.571C190.188 172.348 190.392 172.163 190.654 172.163H200.599C200.851 172.163 201.065 172.338 201.065 172.571Z" fill="white"/>
<path d="M197.662 166.306C197.662 166.53 197.448 166.714 197.196 166.714H194.056C193.803 166.714 193.589 166.53 193.589 166.306C193.589 166.083 193.793 165.898 194.056 165.898H197.196C197.448 165.898 197.662 166.083 197.662 166.306Z" fill="white"/>
<path d="M201.045 152.407C201.045 152.659 200.841 152.873 200.579 152.873H190.673C190.42 152.873 190.207 152.659 190.207 152.407V152.377C190.207 152.125 190.411 151.911 190.673 151.911H200.579C200.831 151.911 201.045 152.115 201.045 152.377V152.407Z" fill="white"/>
<path d="M199.937 155.525C199.937 155.748 199.733 155.933 199.471 155.933H191.781C191.529 155.933 191.315 155.748 191.315 155.525C191.315 155.301 191.519 155.117 191.781 155.117H199.471C199.733 155.117 199.937 155.301 199.937 155.525Z" fill="white"/>
<path d="M197.662 158.652C197.662 158.875 197.458 159.06 197.196 159.06H194.056C193.803 159.06 193.589 158.875 193.589 158.652C193.589 158.429 193.793 158.244 194.056 158.244H197.196C197.458 158.244 197.662 158.429 197.662 158.652Z" fill="white"/>
<path d="M411.347 35.9461V27.7285H403.123V35.9461H394.9V44.1636H403.123V52.3811H411.347V44.1636H419.571V35.9461H411.347Z" fill="white"/>
<path d="M347.832 73.3184C347.988 73.3184 348.143 73.3961 348.231 73.5224L349.475 75.2805L349.913 73.6778L351.448 67.9274C351.507 67.7137 351.701 67.5583 351.925 67.5583C352.148 67.5583 352.343 67.704 352.401 67.9274L354.997 77.6506L356.056 73.6778L356.756 71.0649C356.805 70.8803 356.96 70.7443 357.145 70.7055C357.329 70.6763 357.524 70.754 357.631 70.9095L359.332 73.3184H366.049C367.39 70.3558 366.856 66.7521 364.416 64.3238C361.276 61.1863 356.192 61.1863 353.052 64.3238C349.913 61.1863 344.829 61.1863 341.689 64.3238C339.259 66.7618 338.714 70.3655 340.056 73.3184H347.832Z" fill="white"/>
<path d="M359.089 74.299C358.933 74.299 358.778 74.2213 358.69 74.095L357.446 72.3369L357.018 73.9396L355.483 79.6899C355.424 79.9036 355.23 80.059 355.006 80.059C354.783 80.059 354.588 79.9133 354.53 79.6899L351.934 69.9668L350.875 73.9396L350.165 76.5525C350.117 76.737 349.961 76.873 349.776 76.9119C349.592 76.941 349.397 76.8633 349.29 76.7079L347.589 74.299H340.62C340.931 74.7846 341.29 75.2412 341.718 75.6686L353.082 87.0236L364.445 75.6686C364.873 75.2412 365.232 74.7846 365.543 74.299H359.089Z" fill="white"/>
<path d="M317.86 29.3914C316.975 29.3914 316.226 29.9548 315.954 30.7513H309.646L307.351 27.507C307.206 27.2933 306.943 27.1962 306.69 27.235C306.438 27.2836 306.234 27.4682 306.165 27.7207L305.223 31.2467L303.794 36.5988L300.284 23.4954C300.207 23.204 299.944 23 299.643 23C299.342 23 299.079 23.204 299.001 23.4954L296.931 31.2467L296.348 33.4128L294.676 31.0427C294.549 30.8679 294.345 30.761 294.131 30.761H287.482C287.21 29.9742 286.462 29.4011 285.577 29.4011C284.459 29.4011 283.555 30.3045 283.555 31.4215C283.555 32.5386 284.459 33.4419 285.577 33.4419C286.462 33.4419 287.21 32.8785 287.482 32.082H293.791L296.075 35.3263C296.221 35.54 296.484 35.6469 296.736 35.5983C296.989 35.5497 297.193 35.3652 297.261 35.1223L298.214 31.5964L299.643 26.2443L303.152 39.3477C303.23 39.6391 303.492 39.843 303.794 39.843C304.095 39.843 304.357 39.6391 304.435 39.3477L306.506 31.5964L307.079 29.44L308.761 31.8101C308.887 31.9849 309.091 32.0917 309.305 32.0917H315.954C316.226 32.8785 316.975 33.4516 317.86 33.4516C318.977 33.4516 319.881 32.5483 319.881 31.4312C319.881 30.2948 318.977 29.3914 317.86 29.3914Z" fill="white"/>
<path d="M270.322 104.842C271.013 104.842 271.576 104.278 271.576 103.588C271.576 102.899 271.013 102.335 270.322 102.335C269.632 102.335 269.068 102.899 269.068 103.588C269.068 104.288 269.632 104.842 270.322 104.842Z" fill="white"/>
<path d="M271.11 101.073C271.645 101.073 272.072 100.645 272.072 100.111C272.072 99.5768 271.645 99.1494 271.11 99.1494C270.575 99.1494 270.148 99.5768 270.148 100.111C270.148 100.636 270.575 101.073 271.11 101.073Z" fill="white"/>
<path d="M270.303 107.309C270.322 107.202 270.322 107.086 270.322 106.969C270.254 106.027 269.448 105.318 268.505 105.376C268.388 105.386 268.271 105.405 268.164 105.434C268.262 105.26 268.32 105.056 268.32 104.842C268.32 104.152 267.756 103.589 267.066 103.589C266.376 103.589 265.812 104.152 265.812 104.842C265.812 105.532 266.376 106.095 267.066 106.095C267.124 106.095 267.183 106.085 267.241 106.075C267.008 106.386 266.881 106.775 266.91 107.193C266.91 107.231 266.92 107.261 266.93 107.299H262.429C262.429 110.243 263.926 112.826 266.201 114.351H275.63C277.905 112.826 279.402 110.243 279.402 107.299H270.303V107.309Z" fill="white"/>
<path d="M279.042 101.743C277.953 100.179 276.456 98.9844 274.706 98.2559V91.7867C274.998 91.7867 275.241 91.5439 275.241 91.2525C275.241 90.9611 274.998 90.7183 274.706 90.7183H267.124C266.832 90.7183 266.589 90.9611 266.589 91.2525C266.589 91.5439 266.832 91.7867 267.124 91.7867V98.2559C265.374 98.9747 263.877 100.179 262.789 101.743C261.622 103.414 261 105.376 261 107.416C261 110.776 262.682 113.885 265.501 115.721L265.598 115.779H276.232L276.32 115.721C279.139 113.885 280.821 110.776 280.821 107.416C280.83 105.376 280.208 103.414 279.042 101.743ZM276.009 115.041H265.812C263.255 113.331 261.739 110.495 261.739 107.425C261.739 103.657 264.101 100.218 267.63 98.8678L267.873 98.7804V91.8062H273.958V98.7804L274.201 98.8678C277.72 100.218 280.091 103.657 280.091 107.425C280.082 110.495 278.556 113.331 276.009 115.041Z" fill="white"/>
</g>
<defs>
<filter id="filter0_d_19886_143263" x="-22" y="-11" width="696" height="361" filterUnits="userSpaceOnUse" color-interpolation-filters="sRGB">
<feFlood flood-opacity="0" result="BackgroundImageFix"/>
<feColorMatrix in="SourceAlpha" type="matrix" values="0 0 0 0 0 0 0 0 0 0 0 0 0 0 0 0 0 0 127 0" result="hardAlpha"/>
<feOffset dy="11"/>
<feGaussianBlur stdDeviation="11"/>
<feComposite in2="hardAlpha" operator="out"/>
<feColorMatrix type="matrix" values="0 0 0 0 0.231373 0 0 0 0 0.509804 0 0 0 0 0.964706 0 0 0 0.2 0"/>
<feBlend mode="normal" in2="BackgroundImageFix" result="effect1_dropShadow_19886_143263"/>
<feBlend mode="normal" in="SourceGraphic" in2="effect1_dropShadow_19886_143263" result="shape"/>
</filter>
</defs>
</svg>
