<svg width="28" height="28" viewBox="0 0 28 28" fill="none" xmlns="http://www.w3.org/2000/svg">
<g clip-path="url(#clip0_1_8993)">
<path d="M13.9838 0.0012207C13.4819 0.0012207 12.9804 0.0282018 12.4813 0.0819888C12.0239 0.128709 11.5722 0.205331 11.1264 0.298305C11.0402 0.31635 10.9539 0.335389 10.8676 0.355304C8.24152 0.953209 5.84359 2.2959 3.96139 4.22236C3.78637 4.40177 3.61502 4.58649 3.44747 4.77646C-1.63689 10.6135 -1.02672 19.467 4.81036 24.5514C10.3986 29.419 18.8103 29.0951 24.0078 23.8123C24.1831 23.6329 24.3544 23.4481 24.5217 23.2582C26.7655 20.7029 28.002 17.4179 28 14.0173C28 6.27637 21.7248 0.0011623 13.9838 0.0012207ZM4.58418 4.92317C4.658 4.84654 4.73462 4.77319 4.80984 4.69891C4.89674 4.61341 4.98317 4.52744 5.07194 4.44475C5.14996 4.37186 5.23032 4.30178 5.31021 4.23077C5.40038 4.15088 5.49009 4.07098 5.58259 3.9939C5.66389 3.92522 5.74752 3.85934 5.83068 3.793C5.92412 3.71824 6.01756 3.64349 6.11381 3.57154C6.19884 3.50754 6.28527 3.4454 6.37217 3.38466C6.46888 3.31551 6.56606 3.2445 6.66464 3.18002C6.75294 3.12022 6.84218 3.06229 6.93188 3.00482C7.03186 2.94082 7.13231 2.87774 7.2337 2.81794C7.32498 2.76345 7.41684 2.70984 7.50935 2.65722C7.61277 2.59835 7.71661 2.54089 7.82097 2.48482C7.91441 2.43501 8.00785 2.38624 8.1013 2.33859C8.20782 2.28486 8.31528 2.233 8.4232 2.18208C8.51664 2.13769 8.61382 2.09331 8.71006 2.05126C8.81986 2.00454 8.93105 1.95782 9.04225 1.9111C9.13896 1.87138 9.2352 1.83261 9.33285 1.79523C9.44591 1.75225 9.56038 1.71207 9.67484 1.67189C9.77249 1.63778 9.87013 1.60368 9.96918 1.57144C10.0855 1.53406 10.2028 1.49949 10.3205 1.46538C10.4191 1.43688 10.5167 1.40745 10.6158 1.38082C10.6536 1.37101 10.6915 1.36306 10.7293 1.35325C9.3464 2.69606 8.32012 4.36258 7.74342 6.20191C6.63451 5.90944 5.56099 5.49631 4.54213 4.96989C4.55755 4.95353 4.57063 4.93718 4.58418 4.92317ZM3.91234 5.67537C5.03462 6.28343 6.22471 6.75706 7.45795 7.08632C6.85339 9.18851 6.53604 11.3628 6.51467 13.5501H0.912881C1.01467 10.6658 2.06945 7.89652 3.91234 5.67537ZM3.91234 22.3593C2.06956 20.138 1.01479 17.3688 0.912881 14.4845H6.51467C6.53604 16.6718 6.85333 18.8461 7.45795 20.9483C6.22477 21.2777 5.03468 21.7512 3.91234 22.3593ZM10.613 26.6557C10.5186 26.6318 10.421 26.601 10.3238 26.5725C10.2056 26.5379 10.0869 26.5034 9.97012 26.4655C9.87154 26.4337 9.77436 26.3996 9.67718 26.3655C9.56225 26.3258 9.44731 26.2852 9.33378 26.2417C9.2366 26.2048 9.14083 26.166 9.04458 26.1268C8.93292 26.0801 8.82126 26.0334 8.71053 25.9866C8.61522 25.9446 8.52038 25.9013 8.426 25.8567C8.31715 25.8054 8.20875 25.753 8.09896 25.6988C8.00552 25.6521 7.91208 25.6054 7.81864 25.5545C7.71305 25.4979 7.60839 25.44 7.50374 25.3802C7.4103 25.3283 7.32153 25.2751 7.23136 25.2209C7.12858 25.1592 7.02766 25.0957 6.92674 25.0307C6.83797 24.9742 6.74921 24.9167 6.66184 24.8579C6.56232 24.7906 6.46374 24.7205 6.3661 24.6504C6.2806 24.5892 6.1951 24.528 6.111 24.4635C6.01429 24.3907 5.91945 24.3154 5.82507 24.2398C5.74238 24.1739 5.66015 24.1085 5.57932 24.0407C5.48588 23.9632 5.39571 23.8823 5.30507 23.802C5.22565 23.7314 5.14576 23.6618 5.0682 23.5899C4.97897 23.5067 4.89253 23.4203 4.80563 23.3348C4.73041 23.2605 4.65379 23.1871 4.57997 23.111C4.56642 23.0965 4.55334 23.0816 4.53979 23.0675C5.55859 22.5409 6.63211 22.1276 7.74108 21.835C8.3179 23.6743 9.34412 25.3408 10.727 26.6837C10.6891 26.6739 10.6508 26.6659 10.613 26.6557ZM13.5167 27.0621C11.5175 26.7781 9.76501 24.6915 8.66241 21.6103C10.2565 21.2534 11.8833 21.0619 13.5167 21.0389V27.0621ZM13.5167 20.1045C11.7839 20.1273 10.0585 20.3331 8.369 20.7184C7.78237 18.6915 7.47291 16.5945 7.44908 14.4845H13.5167V20.1045ZM13.5167 13.5501H7.44908C7.47285 11.4401 7.78231 9.3431 8.369 7.31619C10.0585 7.70146 11.784 7.90726 13.5167 7.9301V13.5501ZM13.5167 6.99569C11.8832 6.97291 10.2565 6.78141 8.66241 6.42429C9.76501 3.34308 11.5175 1.25654 13.5167 0.972481V6.99569ZM24.0554 5.67537C25.8982 7.89657 26.953 10.6658 27.0549 13.5501H21.4531C21.4317 11.3628 21.1144 9.18851 20.5098 7.08632C21.743 6.75689 22.9331 6.28332 24.0554 5.67537ZM17.351 1.37848C17.4491 1.40278 17.5468 1.43361 17.644 1.46211C17.7622 1.49669 17.8808 1.53126 17.9976 1.5691C18.0962 1.60087 18.1934 1.63498 18.2906 1.66908C18.4055 1.7088 18.5204 1.74944 18.634 1.79289C18.7311 1.8298 18.8269 1.86858 18.9232 1.90783C19.0348 1.95455 19.1465 2.00127 19.2572 2.04799C19.3525 2.09004 19.4474 2.13331 19.5417 2.17787C19.6506 2.22926 19.759 2.28159 19.8688 2.33579C19.9622 2.38251 20.0557 2.42923 20.1491 2.48015C20.2547 2.53668 20.3594 2.59462 20.464 2.65442C20.5574 2.70628 20.6462 2.75954 20.7364 2.81374C20.8392 2.87541 20.9401 2.93895 21.041 3.00389C21.1298 3.06042 21.2185 3.11789 21.3059 3.17675C21.4054 3.24403 21.5035 3.31365 21.6012 3.38373C21.6871 3.44493 21.7726 3.5066 21.8572 3.57061C21.9535 3.64302 22.0478 3.71824 22.1427 3.79393C22.2249 3.85934 22.3076 3.92475 22.3884 3.99296C22.4819 4.07052 22.572 4.15134 22.6627 4.2317C22.7421 4.30225 22.822 4.37186 22.8995 4.44381C22.9888 4.52698 23.0752 4.61341 23.1621 4.69891C23.2373 4.77319 23.314 4.84654 23.3878 4.9227C23.4013 4.93718 23.4144 4.95213 23.428 4.96615C22.4092 5.49281 21.3356 5.90611 20.2267 6.19864C19.6487 4.35913 18.6212 2.69279 17.237 1.35045C17.2749 1.36026 17.3132 1.3682 17.351 1.37848ZM14.4511 0.972481C16.4502 1.25654 18.2027 3.34308 19.3053 6.42429C17.7112 6.78124 16.0845 6.97274 14.4511 6.99569V0.972481ZM14.4511 7.9301C16.1838 7.90732 17.9093 7.70152 19.5987 7.31619C20.1854 9.3431 20.4948 11.4401 20.5187 13.5501H14.4511V7.9301ZM14.4511 14.4845H20.5187C20.4949 16.5945 20.1854 18.6915 19.5987 20.7184C17.9093 20.3332 16.1838 20.1274 14.4511 20.1045V14.4845ZM14.4511 27.0621V21.0389C16.0845 21.0617 17.7112 21.2532 19.3053 21.6103C18.2027 24.6915 16.4502 26.7781 14.4511 27.0621ZM23.3836 23.1115C23.3098 23.1876 23.2336 23.261 23.1584 23.3352C23.0715 23.4207 22.9846 23.5072 22.8953 23.5903C22.8178 23.6628 22.7379 23.7305 22.6585 23.8029C22.5678 23.8833 22.4777 23.9636 22.3852 24.0412C22.3034 24.1094 22.2202 24.1753 22.1371 24.2416C22.0436 24.3164 21.9502 24.3911 21.8539 24.4631C21.7689 24.5271 21.6825 24.5892 21.5956 24.65C21.4989 24.7191 21.4017 24.7901 21.3031 24.8546C21.2148 24.9144 21.1256 24.9723 21.0359 25.0293C20.9359 25.0938 20.8351 25.1561 20.7336 25.2162C20.6401 25.2709 20.5509 25.3241 20.4589 25.3769C20.3554 25.4358 20.2514 25.4933 20.1468 25.5493C20.0533 25.5991 19.9599 25.6479 19.8665 25.6956C19.7599 25.7493 19.6525 25.8012 19.5445 25.8521C19.4511 25.8965 19.3539 25.9408 19.2577 25.9829C19.1479 26.0296 19.0367 26.0763 18.9255 26.1231C18.8288 26.1623 18.7325 26.2015 18.6354 26.2385C18.5214 26.2819 18.4069 26.3226 18.292 26.3623C18.1948 26.3964 18.0976 26.4305 17.999 26.4622C17.8822 26.5001 17.7654 26.5347 17.6463 26.5688C17.5486 26.5977 17.4505 26.6267 17.352 26.6533C17.3141 26.6631 17.2763 26.6711 17.2384 26.6809C18.6214 25.3381 19.6476 23.6716 20.2243 21.8322C21.3332 22.1247 22.4068 22.5378 23.4256 23.0643C23.4102 23.0811 23.3971 23.0974 23.3836 23.1115ZM24.0554 22.3593C22.9331 21.7512 21.743 21.2776 20.5098 20.9483C21.1144 18.8461 21.4317 16.6718 21.4531 14.4845H27.0549C26.9531 17.3688 25.8983 20.1381 24.0554 22.3593Z" fill="#193766"/>
</g>
<defs>
<clipPath id="clip0_1_8993">
<rect width="28" height="28" fill="white"/>
</clipPath>
</defs>
</svg>
