<svg width="182" height="38" viewBox="0 0 182 38" fill="none" xmlns="http://www.w3.org/2000/svg">
<g id="Group 773">
<g id="Group">
<path id="Vector" d="M68.4162 31.58L55.798 17.9314L60.7653 13.2528C62.1988 11.9064 62.2654 9.65131 60.9319 8.20399C59.5985 6.75666 57.3648 6.68935 55.9313 8.0357L50.9474 12.7311V3.60957C50.9474 1.64054 49.3639 0.041748 47.4136 0.041748C45.4634 0.041748 43.8799 1.64054 43.8799 3.60957V34.0202C43.8799 35.9893 45.4634 37.5881 47.4136 37.5881C49.3639 37.5881 50.9474 35.9893 50.9474 34.0202V23.1821L63.2156 36.4605C64.549 37.9078 66.7827 37.9751 68.2162 36.6288C69.6663 35.2824 69.7497 33.0273 68.4162 31.58Z" fill="#3FC4FF"/>
<path id="Vector_2" d="M100.902 10.0888C99.1521 10.3412 97.8853 11.94 97.8853 13.7407V20.9269C97.7353 24.0235 96.5351 30.7552 88.9842 30.5028C80.1832 30.4523 80.0665 22.1891 80.0498 19.9508L80.0832 3.84507H80.0665C80.0665 3.81141 80.0832 3.77775 80.0832 3.74409C80.0832 1.77506 78.4996 0.17627 76.5494 0.17627C74.5991 0.17627 73.0156 1.77506 73.0156 3.74409C73.0156 3.77775 73.0323 3.81141 73.0323 3.84507H73.0156V19.4459V19.4627C73.0323 26.5142 75.7993 30.8899 75.7993 30.8899C79.8165 37.8236 88.9842 37.6048 88.9842 37.6048C88.9842 37.6048 98.1353 37.8236 102.169 30.8899C102.169 30.8899 102.836 29.9138 103.536 28.1467C104.403 25.9252 104.836 23.5691 104.853 21.1793L104.953 13.6229C104.953 11.4688 103.086 9.76901 100.902 10.0888Z" fill="#3FC4FF"/>
<path id="Vector_3" d="M23.0577 3.72738C23.0577 5.76373 21.4242 7.39618 19.4073 7.39618C17.3904 7.39618 15.7568 5.7469 15.7568 3.72738C15.7735 1.69103 17.3904 0.041748 19.4073 0.041748C21.4242 0.041748 23.0577 1.69103 23.0577 3.72738Z" fill="#3FC4FF"/>
<path id="Vector_4" d="M133.855 24.7473L133.421 23.8721C138.938 19.9172 138.938 14.8179 138.938 13.034C138.938 11.2838 138.622 4.33324 133.054 1.25346C131.521 0.411994 129.787 0.041748 128.054 0.041748H113.252V0.142724C111.702 0.5298 110.568 1.92664 110.568 3.60957V34.0202C110.568 35.9893 112.152 37.5881 114.102 37.5881C116.052 37.5881 117.636 35.9893 117.636 34.0202V26.1777H126.154L127.07 28.029C127.97 29.8297 130.104 30.7217 131.938 29.9307C133.971 29.0892 134.821 26.6995 133.855 24.7473ZM131.004 16.3157C130.321 17.7462 128.837 18.6045 127.27 18.6045H117.636V7.61496H126.004C127.137 7.61496 128.27 7.88423 129.221 8.49009C130.404 9.23058 131.604 10.5938 131.721 13.0172C131.721 13.034 131.788 14.6833 131.004 16.3157Z" fill="#3FC4FF"/>
<path id="Vector_5" d="M134.488 30.6038C132.471 30.6038 130.838 32.253 130.838 34.2726C130.838 36.3089 132.471 37.9582 134.488 37.9582C136.505 37.9582 138.139 36.3089 138.139 34.2726C138.122 32.253 136.489 30.6038 134.488 30.6038Z" fill="#3FC4FF"/>
<path id="Vector_6" d="M31.7933 2.8527C30.9099 2.14587 29.7931 1.79245 28.6763 1.91026C27.7095 2.01123 26.676 2.46563 26.176 3.76149C25.6426 5.12466 26.0426 6.68979 27.0761 7.71639C28.5096 9.13005 30.8432 11.8732 31.5766 15.2391C31.5766 15.2391 32.9935 22.7618 27.4761 27.4236C27.4761 27.4236 24.9092 30.1331 19.3751 30.4697C13.8411 30.1331 11.2742 27.4236 11.2742 27.4236C5.75683 22.7618 7.17367 15.2391 7.17367 15.2391C7.90709 11.8732 10.2407 9.13005 11.6742 7.71639C12.7577 6.67297 13.1577 5.10784 12.641 3.74466C12.1409 2.4488 11.1075 2.01123 10.1407 1.89343C9.02389 1.77562 7.90709 2.14587 7.02365 2.8527C-1.4107 9.60127 0.106147 20.2038 0.106147 20.2038C0.589539 28.0126 7.05699 33.0951 7.05699 33.0951C12.3743 37.6895 19.4085 37.6053 19.4085 37.6053C19.4085 37.6053 26.4427 37.6895 31.76 33.0951C31.76 33.0951 38.2274 28.0126 38.7108 20.2038C38.7108 20.1869 40.2277 9.60127 31.7933 2.8527Z" fill="#3FC4FF"/>
<path id="Vector_7" d="M166.26 3.72738C166.26 5.76373 164.627 7.39618 162.61 7.39618C160.593 7.39618 158.959 5.7469 158.959 3.72738C158.959 1.69103 160.593 0.041748 162.61 0.041748C164.627 0.041748 166.26 1.69103 166.26 3.72738Z" fill="#3FC4FF"/>
<path id="Vector_8" d="M174.993 2.85173C174.11 2.1449 172.993 1.79148 171.876 1.90929C170.909 2.01026 169.876 2.46466 169.376 3.76052C168.842 5.1237 169.243 6.68883 170.276 7.71542C171.709 9.12908 174.043 11.8723 174.777 15.2381C174.777 15.2381 176.193 22.7609 170.676 27.4226C170.676 27.4226 168.109 30.1321 162.575 30.4687C157.041 30.1321 154.491 27.4226 154.491 27.4226C148.973 22.7609 150.39 15.2381 150.39 15.2381C151.124 11.8723 153.457 9.12908 154.891 7.71542C155.924 6.68883 156.324 5.1237 155.791 3.76052C155.291 2.46466 154.257 2.02709 153.291 1.90929C152.174 1.79148 151.057 2.1449 150.174 2.85173C141.739 9.60031 143.256 20.2028 143.256 20.2028C143.739 28.0285 150.207 33.0941 150.207 33.0941C155.524 37.6885 162.558 37.6044 162.558 37.6044C162.558 37.6044 169.593 37.6885 174.91 33.0941C174.91 33.0941 181.377 28.0116 181.861 20.2028C181.911 20.186 183.444 9.60031 174.993 2.85173Z" fill="#3FC4FF"/>
<path id="Vector_9" d="M104.947 3.72738C104.947 5.76373 103.314 7.39618 101.297 7.39618C99.28 7.39618 97.6465 5.7469 97.6465 3.72738C97.6465 1.69103 99.28 0.041748 101.297 0.041748C103.314 0.041748 104.947 1.69103 104.947 3.72738Z" fill="#3FC4FF"/>
</g>
</g>
</svg>
