<svg width="13" height="9" viewBox="0 0 13 9" fill="none" xmlns="http://www.w3.org/2000/svg">
<path fill-rule="evenodd" clip-rule="evenodd" d="M11.7989 0.220428C11.9395 0.361275 12.0186 0.552214 12.0186 0.751286C12.0186 0.950358 11.9395 1.14129 11.7989 1.28214L4.53716 8.54389C4.3963 8.68451 4.20537 8.76354 4.0063 8.76354C3.80723 8.76354 3.61629 8.68451 3.47544 8.54389L0.220177 5.28862C0.0874824 5.14621 0.0152456 4.95787 0.0186712 4.76324C0.0221067 4.56863 0.100944 4.38295 0.238587 4.24531C0.376219 4.10767 0.56191 4.02884 0.756524 4.0254C0.951139 4.02196 1.13948 4.09421 1.28189 4.22691L4.0063 6.95131L10.7372 0.220428C10.878 0.07975 11.0689 0.000732422 11.268 0.000732422C11.4671 0.000732422 11.6581 0.07975 11.7989 0.220428Z" fill="#00CB50"/>
</svg>
