<svg width="148" height="148" viewBox="0 0 148 148" fill="none" xmlns="http://www.w3.org/2000/svg">
<rect width="148" height="148" rx="24" fill="#3B82F6"/>
<path d="M82.5553 37.8073C82.5553 42.6712 78.6237 46.6147 73.7745 46.6147C68.9253 46.6147 64.9875 42.6712 64.9875 37.8073C64.9936 32.9435 68.9253 29 73.7745 29C78.6237 29 82.5553 32.9435 82.5553 37.8073Z" fill="white"/>
<path d="M103.629 35.7106C101.515 34.0223 98.8105 33.1568 96.1307 33.4432C93.8094 33.6931 91.3179 34.7598 90.1147 37.8682C88.8447 41.1413 89.8048 44.8897 92.3023 47.3521C95.7539 50.7471 101.387 57.3115 103.149 65.3569C103.149 65.3569 106.558 83.3556 93.2807 94.5157C93.2807 94.5157 87.1068 100.995 73.7745 101.805C60.4422 100.995 54.2683 94.5157 54.2683 94.5157C40.9907 83.3617 44.3997 65.363 44.3997 65.363C46.1619 57.3115 51.795 50.7532 55.2466 47.3582C57.7502 44.8958 58.7103 41.1474 57.4342 37.8743C56.231 34.7659 53.7396 33.6992 51.4183 33.4493C48.7324 33.1568 46.0343 34.0284 43.9196 35.7167C23.5931 51.8869 27.2573 77.2423 27.2573 77.2423C28.424 95.9602 44.0047 108.114 44.0047 108.114C56.8022 119.097 73.7745 118.914 73.7745 118.914C73.7745 118.914 90.7406 119.097 103.544 108.114C103.544 108.114 119.125 95.9663 120.292 77.2423C120.292 77.2423 123.962 51.8869 103.629 35.7106Z" fill="white"/>
</svg>
